<svg width="1360" height="150" viewBox="0 0 1360 150" fill="none" xmlns="http://www.w3.org/2000/svg">
<path d="M0 12C0 5.37258 5.37258 0 12 0H768C774.627 0 780 5.37258 780 12V138C780 144.627 774.627 150 768 150H12C5.37258 150 0 144.627 0 138V12Z" fill="#F1F3F4"/>
<path d="M34.1 52V38H39.56C40.7867 38 41.8333 38.1933 42.7 38.58C43.5667 38.9667 44.2333 39.5267 44.7 40.26C45.1667 40.9933 45.4 41.8667 45.4 42.88C45.4 43.8933 45.1667 44.7667 44.7 45.5C44.2333 46.22 43.5667 46.78 42.7 47.18C41.8333 47.5667 40.7867 47.76 39.56 47.76H35.2L36.1 46.82V52H34.1ZM36.1 47.02L35.2 46.02H39.5C40.78 46.02 41.7467 45.7467 42.4 45.2C43.0667 44.6533 43.4 43.88 43.4 42.88C43.4 41.88 43.0667 41.1067 42.4 40.56C41.7467 40.0133 40.78 39.74 39.5 39.74H35.2L36.1 38.74V47.02ZM53.9136 41.3C54.7803 41.3 55.5403 41.4667 56.1936 41.8C56.8603 42.1333 57.3803 42.64 57.7536 43.32C58.1269 44 58.3136 44.86 58.3136 45.9V52H56.3936V46.12C56.3936 45.0933 56.1403 44.32 55.6336 43.8C55.1403 43.28 54.4403 43.02 53.5336 43.02C52.8536 43.02 52.2603 43.1533 51.7536 43.42C51.2469 43.6867 50.8536 44.08 50.5736 44.6C50.3069 45.12 50.1736 45.7667 50.1736 46.54V52H48.2536V37.16H50.1736V44.26L49.7936 43.5C50.1403 42.8067 50.6736 42.2667 51.3936 41.88C52.1136 41.4933 52.9536 41.3 53.9136 41.3ZM66.4069 52.12C65.3402 52.12 64.3935 51.8867 63.5669 51.42C62.7402 50.9533 62.0869 50.3133 61.6069 49.5C61.1269 48.6733 60.8869 47.74 60.8869 46.7C60.8869 45.6467 61.1269 44.7133 61.6069 43.9C62.0869 43.0867 62.7402 42.4533 63.5669 42C64.3935 41.5333 65.3402 41.3 66.4069 41.3C67.4602 41.3 68.4002 41.5333 69.2269 42C70.0669 42.4533 70.7202 43.0867 71.1869 43.9C71.6669 44.7 71.9069 45.6333 71.9069 46.7C71.9069 47.7533 71.6669 48.6867 71.1869 49.5C70.7202 50.3133 70.0669 50.9533 69.2269 51.42C68.4002 51.8867 67.4602 52.12 66.4069 52.12ZM66.4069 50.44C67.0869 50.44 67.6935 50.2867 68.2269 49.98C68.7735 49.6733 69.2002 49.24 69.5069 48.68C69.8135 48.1067 69.9669 47.4467 69.9669 46.7C69.9669 45.94 69.8135 45.2867 69.5069 44.74C69.2002 44.18 68.7735 43.7467 68.2269 43.44C67.6935 43.1333 67.0869 42.98 66.4069 42.98C65.7269 42.98 65.1202 43.1333 64.5869 43.44C64.0535 43.7467 63.6269 44.18 63.3069 44.74C62.9869 45.2867 62.8269 45.94 62.8269 46.7C62.8269 47.4467 62.9869 48.1067 63.3069 48.68C63.6269 49.24 64.0535 49.6733 64.5869 49.98C65.1202 50.2867 65.7269 50.44 66.4069 50.44ZM80.2222 41.3C81.0889 41.3 81.8489 41.4667 82.5022 41.8C83.1689 42.1333 83.6889 42.64 84.0622 43.32C84.4355 44 84.6222 44.86 84.6222 45.9V52H82.7022V46.12C82.7022 45.0933 82.4489 44.32 81.9422 43.8C81.4489 43.28 80.7489 43.02 79.8422 43.02C79.1622 43.02 78.5689 43.1533 78.0622 43.42C77.5555 43.6867 77.1622 44.08 76.8822 44.6C76.6155 45.12 76.4822 45.7667 76.4822 46.54V52H74.5622V41.4H76.4022V44.26L76.1022 43.5C76.4489 42.8067 76.9822 42.2667 77.7022 41.88C78.4222 41.4933 79.2622 41.3 80.2222 41.3ZM92.8955 52.12C91.7621 52.12 90.7621 51.8867 89.8955 51.42C89.0421 50.9533 88.3755 50.3133 87.8955 49.5C87.4288 48.6867 87.1955 47.7533 87.1955 46.7C87.1955 45.6467 87.4221 44.7133 87.8755 43.9C88.3421 43.0867 88.9755 42.4533 89.7755 42C90.5888 41.5333 91.5021 41.3 92.5155 41.3C93.5421 41.3 94.4488 41.5267 95.2355 41.98C96.0221 42.4333 96.6355 43.0733 97.0755 43.9C97.5288 44.7133 97.7555 45.6667 97.7555 46.76C97.7555 46.84 97.7488 46.9333 97.7355 47.04C97.7355 47.1467 97.7288 47.2467 97.7155 47.34H88.6955V45.96H96.7155L95.9355 46.44C95.9488 45.76 95.8088 45.1533 95.5155 44.62C95.2221 44.0867 94.8155 43.6733 94.2955 43.38C93.7888 43.0733 93.1955 42.92 92.5155 42.92C91.8488 42.92 91.2555 43.0733 90.7355 43.38C90.2155 43.6733 89.8088 44.0933 89.5155 44.64C89.2221 45.1733 89.0755 45.7867 89.0755 46.48V46.8C89.0755 47.5067 89.2355 48.14 89.5555 48.7C89.8888 49.2467 90.3488 49.6733 90.9355 49.98C91.5221 50.2867 92.1955 50.44 92.9555 50.44C93.5821 50.44 94.1488 50.3333 94.6555 50.12C95.1755 49.9067 95.6288 49.5867 96.0155 49.16L97.0755 50.4C96.5955 50.96 95.9955 51.3867 95.2755 51.68C94.5688 51.9733 93.7755 52.12 92.8955 52.12Z" fill="#8B8B8B"/>
<path d="M41.68 105V87H45.96V105H41.68ZM34.6 98V94H53.04V98H34.6ZM57.1491 103.64V100.04L70.9491 82H76.5091L62.9091 100.04L60.3091 99.24H82.5091V103.64H57.1491ZM72.5091 110V103.64L72.6691 99.24V93.6H77.5491V110H72.5091ZM93.9422 81.6C96.5022 81.6 98.6755 82.1467 100.462 83.24C102.276 84.3067 103.662 85.8667 104.622 87.92C105.582 89.9733 106.062 92.5067 106.062 95.52C106.062 98.72 105.476 101.427 104.302 103.64C103.156 105.853 101.556 107.533 99.5022 108.68C97.4489 109.827 95.0622 110.4 92.3422 110.4C90.9289 110.4 89.5822 110.253 88.3022 109.96C87.0222 109.667 85.9155 109.213 84.9822 108.6L86.9022 104.68C87.6755 105.187 88.5155 105.547 89.4222 105.76C90.3289 105.947 91.2622 106.04 92.2222 106.04C94.8622 106.04 96.9555 105.227 98.5022 103.6C100.049 101.973 100.822 99.5733 100.822 96.4C100.822 95.8933 100.809 95.3067 100.782 94.64C100.756 93.9467 100.662 93.2533 100.502 92.56L102.102 94.32C101.649 95.4133 100.996 96.3333 100.142 97.08C99.2889 97.8 98.2889 98.3467 97.1422 98.72C95.9955 99.0933 94.7289 99.28 93.3422 99.28C91.5289 99.28 89.8889 98.9333 88.4222 98.24C86.9822 97.52 85.8355 96.52 84.9822 95.24C84.1289 93.9333 83.7022 92.4133 83.7022 90.68C83.7022 88.8133 84.1555 87.2133 85.0622 85.88C85.9689 84.52 87.1955 83.4667 88.7422 82.72C90.3155 81.9733 92.0489 81.6 93.9422 81.6ZM94.2222 85.68C93.1555 85.68 92.2089 85.88 91.3822 86.28C90.5555 86.6533 89.9022 87.2 89.4222 87.92C88.9689 88.6133 88.7422 89.4533 88.7422 90.44C88.7422 91.9067 89.2489 93.0667 90.2622 93.92C91.2755 94.7733 92.6355 95.2 94.3422 95.2C95.4622 95.2 96.4489 95 97.3022 94.6C98.1555 94.1733 98.8222 93.6 99.3022 92.88C99.7822 92.1333 100.022 91.3067 100.022 90.4C100.022 89.52 99.7955 88.7333 99.3422 88.04C98.8889 87.32 98.2355 86.7467 97.3822 86.32C96.5289 85.8933 95.4755 85.68 94.2222 85.68ZM129.435 110.4C127.462 110.4 125.528 110.12 123.635 109.56C121.768 108.973 120.195 108.173 118.915 107.16L121.155 103.12C122.168 103.947 123.395 104.613 124.835 105.12C126.275 105.627 127.782 105.88 129.355 105.88C131.222 105.88 132.675 105.507 133.715 104.76C134.755 103.987 135.275 102.947 135.275 101.64C135.275 100.36 134.795 99.3467 133.835 98.6C132.875 97.8533 131.328 97.48 129.195 97.48H126.635V93.92L134.635 84.4L135.315 86.36H120.275V82H139.355V85.48L131.355 95L128.635 93.4H130.195C133.635 93.4 136.208 94.1733 137.915 95.72C139.648 97.24 140.515 99.2 140.515 101.6C140.515 103.173 140.115 104.627 139.315 105.96C138.515 107.293 137.288 108.373 135.635 109.2C134.008 110 131.942 110.4 129.435 110.4ZM155.596 110.4C153.383 110.4 151.383 109.84 149.596 108.72C147.836 107.6 146.45 105.973 145.436 103.84C144.423 101.68 143.916 99.0667 143.916 96C143.916 92.9333 144.423 90.3333 145.436 88.2C146.45 86.04 147.836 84.4 149.596 83.28C151.383 82.16 153.383 81.6 155.596 81.6C157.836 81.6 159.836 82.16 161.596 83.28C163.356 84.4 164.743 86.04 165.756 88.2C166.796 90.3333 167.316 92.9333 167.316 96C167.316 99.0667 166.796 101.68 165.756 103.84C164.743 105.973 163.356 107.6 161.596 108.72C159.836 109.84 157.836 110.4 155.596 110.4ZM155.596 105.88C156.903 105.88 158.036 105.533 158.996 104.84C159.956 104.12 160.703 103.027 161.236 101.56C161.796 100.093 162.076 98.24 162.076 96C162.076 93.7333 161.796 91.88 161.236 90.44C160.703 88.9733 159.956 87.8933 158.996 87.2C158.036 86.48 156.903 86.12 155.596 86.12C154.343 86.12 153.223 86.48 152.236 87.2C151.276 87.8933 150.516 88.9733 149.956 90.44C149.423 91.88 149.156 93.7333 149.156 96C149.156 98.24 149.423 100.093 149.956 101.56C150.516 103.027 151.276 104.12 152.236 104.84C153.223 105.533 154.343 105.88 155.596 105.88ZM191.325 81.6C193.885 81.6 196.058 82.1467 197.845 83.24C199.658 84.3067 201.045 85.8667 202.005 87.92C202.965 89.9733 203.445 92.5067 203.445 95.52C203.445 98.72 202.858 101.427 201.685 103.64C200.538 105.853 198.938 107.533 196.885 108.68C194.832 109.827 192.445 110.4 189.725 110.4C188.312 110.4 186.965 110.253 185.685 109.96C184.405 109.667 183.298 109.213 182.365 108.6L184.285 104.68C185.058 105.187 185.898 105.547 186.805 105.76C187.712 105.947 188.645 106.04 189.605 106.04C192.245 106.04 194.338 105.227 195.885 103.6C197.432 101.973 198.205 99.5733 198.205 96.4C198.205 95.8933 198.192 95.3067 198.165 94.64C198.138 93.9467 198.045 93.2533 197.885 92.56L199.485 94.32C199.032 95.4133 198.378 96.3333 197.525 97.08C196.672 97.8 195.672 98.3467 194.525 98.72C193.378 99.0933 192.112 99.28 190.725 99.28C188.912 99.28 187.272 98.9333 185.805 98.24C184.365 97.52 183.218 96.52 182.365 95.24C181.512 93.9333 181.085 92.4133 181.085 90.68C181.085 88.8133 181.538 87.2133 182.445 85.88C183.352 84.52 184.578 83.4667 186.125 82.72C187.698 81.9733 189.432 81.6 191.325 81.6ZM191.605 85.68C190.538 85.68 189.592 85.88 188.765 86.28C187.938 86.6533 187.285 87.2 186.805 87.92C186.352 88.6133 186.125 89.4533 186.125 90.44C186.125 91.9067 186.632 93.0667 187.645 93.92C188.658 94.7733 190.018 95.2 191.725 95.2C192.845 95.2 193.832 95 194.685 94.6C195.538 94.1733 196.205 93.6 196.685 92.88C197.165 92.1333 197.405 91.3067 197.405 90.4C197.405 89.52 197.178 88.7333 196.725 88.04C196.272 87.32 195.618 86.7467 194.765 86.32C193.912 85.8933 192.858 85.68 191.605 85.68ZM211.404 110V84L213.684 86.36H205.484V82H216.604V110H211.404ZM231.438 110.4C229.465 110.4 227.532 110.12 225.638 109.56C223.772 108.973 222.198 108.173 220.918 107.16L223.118 103.12C224.132 103.947 225.358 104.613 226.798 105.12C228.265 105.627 229.785 105.88 231.358 105.88C233.198 105.88 234.638 105.493 235.678 104.72C236.745 103.947 237.278 102.907 237.278 101.6C237.278 100.72 237.052 99.9467 236.598 99.28C236.172 98.6133 235.398 98.1067 234.278 97.76C233.185 97.4133 231.678 97.24 229.758 97.24H222.998L224.438 82H240.878V86.36H226.358L229.078 83.88L227.998 95.28L225.278 92.84H230.918C233.692 92.84 235.918 93.2133 237.598 93.96C239.305 94.68 240.545 95.6933 241.318 97C242.118 98.28 242.518 99.7467 242.518 101.4C242.518 103.027 242.118 104.52 241.318 105.88C240.518 107.24 239.292 108.333 237.638 109.16C236.012 109.987 233.945 110.4 231.438 110.4ZM245.958 100.96V96.8H256.958V100.96H245.958ZM272.148 110.4C269.828 110.4 267.815 110.053 266.108 109.36C264.402 108.667 263.082 107.693 262.148 106.44C261.215 105.16 260.748 103.667 260.748 101.96C260.748 100.253 261.202 98.8133 262.108 97.64C263.015 96.4667 264.322 95.5733 266.028 94.96C267.735 94.3467 269.775 94.04 272.148 94.04C274.522 94.04 276.562 94.3467 278.268 94.96C280.002 95.5733 281.322 96.48 282.228 97.68C283.162 98.8533 283.628 100.28 283.628 101.96C283.628 103.667 283.148 105.16 282.188 106.44C281.255 107.693 279.922 108.667 278.188 109.36C276.482 110.053 274.468 110.4 272.148 110.4ZM272.148 106.32C274.068 106.32 275.588 105.92 276.708 105.12C277.828 104.32 278.388 103.213 278.388 101.8C278.388 100.413 277.828 99.32 276.708 98.52C275.588 97.72 274.068 97.32 272.148 97.32C270.228 97.32 268.722 97.72 267.628 98.52C266.535 99.32 265.988 100.413 265.988 101.8C265.988 103.213 266.535 104.32 267.628 105.12C268.722 105.92 270.228 106.32 272.148 106.32ZM272.148 96.76C269.988 96.76 268.135 96.48 266.588 95.92C265.042 95.3333 263.842 94.4933 262.988 93.4C262.162 92.28 261.748 90.9467 261.748 89.4C261.748 87.8 262.175 86.4267 263.028 85.28C263.908 84.1067 265.135 83.2 266.708 82.56C268.282 81.92 270.095 81.6 272.148 81.6C274.228 81.6 276.055 81.92 277.628 82.56C279.202 83.2 280.428 84.1067 281.308 85.28C282.188 86.4267 282.628 87.8 282.628 89.4C282.628 90.9467 282.202 92.28 281.348 93.4C280.522 94.4933 279.322 95.3333 277.748 95.92C276.175 96.48 274.308 96.76 272.148 96.76ZM272.148 93.56C273.802 93.56 275.108 93.2133 276.068 92.52C277.028 91.8 277.508 90.84 277.508 89.64C277.508 88.3867 277.015 87.4133 276.028 86.72C275.042 86.0267 273.748 85.68 272.148 85.68C270.548 85.68 269.268 86.0267 268.308 86.72C267.348 87.4133 266.868 88.3867 266.868 89.64C266.868 90.84 267.335 91.8 268.268 92.52C269.228 93.2133 270.522 93.56 272.148 93.56ZM298.242 110.4C295.922 110.4 293.909 110.053 292.202 109.36C290.496 108.667 289.176 107.693 288.242 106.44C287.309 105.16 286.842 103.667 286.842 101.96C286.842 100.253 287.296 98.8133 288.202 97.64C289.109 96.4667 290.416 95.5733 292.122 94.96C293.829 94.3467 295.869 94.04 298.242 94.04C300.616 94.04 302.656 94.3467 304.362 94.96C306.096 95.5733 307.416 96.48 308.322 97.68C309.256 98.8533 309.722 100.28 309.722 101.96C309.722 103.667 309.242 105.16 308.282 106.44C307.349 107.693 306.016 108.667 304.282 109.36C302.576 110.053 300.562 110.4 298.242 110.4ZM298.242 106.32C300.162 106.32 301.682 105.92 302.802 105.12C303.922 104.32 304.482 103.213 304.482 101.8C304.482 100.413 303.922 99.32 302.802 98.52C301.682 97.72 300.162 97.32 298.242 97.32C296.322 97.32 294.816 97.72 293.722 98.52C292.629 99.32 292.082 100.413 292.082 101.8C292.082 103.213 292.629 104.32 293.722 105.12C294.816 105.92 296.322 106.32 298.242 106.32ZM298.242 96.76C296.082 96.76 294.229 96.48 292.682 95.92C291.136 95.3333 289.936 94.4933 289.082 93.4C288.256 92.28 287.842 90.9467 287.842 89.4C287.842 87.8 288.269 86.4267 289.122 85.28C290.002 84.1067 291.229 83.2 292.802 82.56C294.376 81.92 296.189 81.6 298.242 81.6C300.322 81.6 302.149 81.92 303.722 82.56C305.296 83.2 306.522 84.1067 307.402 85.28C308.282 86.4267 308.722 87.8 308.722 89.4C308.722 90.9467 308.296 92.28 307.442 93.4C306.616 94.4933 305.416 95.3333 303.842 95.92C302.269 96.48 300.402 96.76 298.242 96.76ZM298.242 93.56C299.896 93.56 301.202 93.2133 302.162 92.52C303.122 91.8 303.602 90.84 303.602 89.64C303.602 88.3867 303.109 87.4133 302.122 86.72C301.136 86.0267 299.842 85.68 298.242 85.68C296.642 85.68 295.362 86.0267 294.402 86.72C293.442 87.4133 292.962 88.3867 292.962 89.64C292.962 90.84 293.429 91.8 294.362 92.52C295.322 93.2133 296.616 93.56 298.242 93.56ZM312.696 103.64V100.04L326.496 82H332.056L318.456 100.04L315.856 99.24H338.056V103.64H312.696ZM328.056 110V103.64L328.216 99.24V93.6H333.096V110H328.056ZM349.489 81.6C352.049 81.6 354.222 82.1467 356.009 83.24C357.822 84.3067 359.209 85.8667 360.169 87.92C361.129 89.9733 361.609 92.5067 361.609 95.52C361.609 98.72 361.022 101.427 359.849 103.64C358.702 105.853 357.102 107.533 355.049 108.68C352.996 109.827 350.609 110.4 347.889 110.4C346.476 110.4 345.129 110.253 343.849 109.96C342.569 109.667 341.462 109.213 340.529 108.6L342.449 104.68C343.222 105.187 344.062 105.547 344.969 105.76C345.876 105.947 346.809 106.04 347.769 106.04C350.409 106.04 352.502 105.227 354.049 103.6C355.596 101.973 356.369 99.5733 356.369 96.4C356.369 95.8933 356.356 95.3067 356.329 94.64C356.302 93.9467 356.209 93.2533 356.049 92.56L357.649 94.32C357.196 95.4133 356.542 96.3333 355.689 97.08C354.836 97.8 353.836 98.3467 352.689 98.72C351.542 99.0933 350.276 99.28 348.889 99.28C347.076 99.28 345.436 98.9333 343.969 98.24C342.529 97.52 341.382 96.52 340.529 95.24C339.676 93.9333 339.249 92.4133 339.249 90.68C339.249 88.8133 339.702 87.2133 340.609 85.88C341.516 84.52 342.742 83.4667 344.289 82.72C345.862 81.9733 347.596 81.6 349.489 81.6ZM349.769 85.68C348.702 85.68 347.756 85.88 346.929 86.28C346.102 86.6533 345.449 87.2 344.969 87.92C344.516 88.6133 344.289 89.4533 344.289 90.44C344.289 91.9067 344.796 93.0667 345.809 93.92C346.822 94.7733 348.182 95.2 349.889 95.2C351.009 95.2 351.996 95 352.849 94.6C353.702 94.1733 354.369 93.6 354.849 92.88C355.329 92.1333 355.569 91.3067 355.569 90.4C355.569 89.52 355.342 88.7333 354.889 88.04C354.436 87.32 353.782 86.7467 352.929 86.32C352.076 85.8933 351.022 85.68 349.769 85.68ZM364.728 110V106.52L375.848 95.96C376.781 95.08 377.475 94.3067 377.928 93.64C378.381 92.9733 378.675 92.36 378.808 91.8C378.968 91.2133 379.048 90.6667 379.048 90.16C379.048 88.88 378.608 87.8933 377.728 87.2C376.848 86.48 375.555 86.12 373.848 86.12C372.488 86.12 371.248 86.36 370.128 86.84C369.035 87.32 368.088 88.0533 367.288 89.04L363.648 86.24C364.741 84.7733 366.208 83.64 368.048 82.84C369.915 82.0133 371.995 81.6 374.288 81.6C376.315 81.6 378.075 81.9333 379.568 82.6C381.088 83.24 382.248 84.16 383.048 85.36C383.875 86.56 384.288 87.9867 384.288 89.64C384.288 90.5467 384.168 91.4533 383.928 92.36C383.688 93.24 383.235 94.1733 382.568 95.16C381.901 96.1467 380.928 97.2533 379.648 98.48L370.088 107.56L369.008 105.6H385.368V110H364.728Z" fill="#282828"/>
<path d="M812 12C812 5.37258 817.373 0 824 0H1348C1354.63 0 1360 5.37258 1360 12V138C1360 144.627 1354.63 150 1348 150H824C817.373 150 812 144.627 812 138V12Z" fill="#F1F3F4"/>
<path d="M850.18 52.16C849.113 52.16 848.093 52 847.12 51.68C846.147 51.3467 845.38 50.92 844.82 50.4L845.56 48.84C846.093 49.3067 846.773 49.6933 847.6 50C848.427 50.3067 849.287 50.46 850.18 50.46C850.993 50.46 851.653 50.3667 852.16 50.18C852.667 49.9933 853.04 49.74 853.28 49.42C853.52 49.0867 853.64 48.7133 853.64 48.3C853.64 47.82 853.48 47.4333 853.16 47.14C852.853 46.8467 852.447 46.6133 851.94 46.44C851.447 46.2533 850.9 46.0933 850.3 45.96C849.7 45.8267 849.093 45.6733 848.48 45.5C847.88 45.3133 847.327 45.08 846.82 44.8C846.327 44.52 845.927 44.1467 845.62 43.68C845.313 43.2 845.16 42.5867 845.16 41.84C845.16 41.12 845.347 40.46 845.72 39.86C846.107 39.2467 846.693 38.76 847.48 38.4C848.28 38.0267 849.293 37.84 850.52 37.84C851.333 37.84 852.14 37.9467 852.94 38.16C853.74 38.3733 854.433 38.68 855.02 39.08L854.36 40.68C853.76 40.28 853.127 39.9933 852.46 39.82C851.793 39.6333 851.147 39.54 850.52 39.54C849.733 39.54 849.087 39.64 848.58 39.84C848.073 40.04 847.7 40.3067 847.46 40.64C847.233 40.9733 847.12 41.3467 847.12 41.76C847.12 42.2533 847.273 42.6467 847.58 42.94C847.9 43.2333 848.307 43.4667 848.8 43.64C849.307 43.8133 849.86 43.9733 850.46 44.12C851.06 44.2533 851.66 44.4067 852.26 44.58C852.873 44.7533 853.427 44.98 853.92 45.26C854.427 45.54 854.833 45.9133 855.14 46.38C855.447 46.8467 855.6 47.4467 855.6 48.18C855.6 48.8867 855.407 49.5467 855.02 50.16C854.633 50.76 854.033 51.2467 853.22 51.62C852.42 51.98 851.407 52.16 850.18 52.16ZM862.782 52.12C861.715 52.12 860.769 51.8867 859.942 51.42C859.115 50.9533 858.462 50.3133 857.982 49.5C857.502 48.6733 857.262 47.74 857.262 46.7C857.262 45.6467 857.502 44.7133 857.982 43.9C858.462 43.0867 859.115 42.4533 859.942 42C860.769 41.5333 861.715 41.3 862.782 41.3C863.835 41.3 864.775 41.5333 865.602 42C866.442 42.4533 867.095 43.0867 867.562 43.9C868.042 44.7 868.282 45.6333 868.282 46.7C868.282 47.7533 868.042 48.6867 867.562 49.5C867.095 50.3133 866.442 50.9533 865.602 51.42C864.775 51.8867 863.835 52.12 862.782 52.12ZM862.782 50.44C863.462 50.44 864.069 50.2867 864.602 49.98C865.149 49.6733 865.575 49.24 865.882 48.68C866.189 48.1067 866.342 47.4467 866.342 46.7C866.342 45.94 866.189 45.2867 865.882 44.74C865.575 44.18 865.149 43.7467 864.602 43.44C864.069 43.1333 863.462 42.98 862.782 42.98C862.102 42.98 861.495 43.1333 860.962 43.44C860.429 43.7467 860.002 44.18 859.682 44.74C859.362 45.2867 859.202 45.94 859.202 46.7C859.202 47.4467 859.362 48.1067 859.682 48.68C860.002 49.24 860.429 49.6733 860.962 49.98C861.495 50.2867 862.102 50.44 862.782 50.44ZM875.557 52.12C874.477 52.12 873.511 51.8867 872.657 51.42C871.817 50.9533 871.157 50.3133 870.677 49.5C870.197 48.6867 869.957 47.7533 869.957 46.7C869.957 45.6467 870.197 44.7133 870.677 43.9C871.157 43.0867 871.817 42.4533 872.657 42C873.511 41.5333 874.477 41.3 875.557 41.3C876.517 41.3 877.371 41.4933 878.117 41.88C878.877 42.2533 879.464 42.8133 879.877 43.56L878.417 44.5C878.071 43.98 877.644 43.6 877.137 43.36C876.644 43.1067 876.111 42.98 875.537 42.98C874.844 42.98 874.224 43.1333 873.677 43.44C873.131 43.7467 872.697 44.18 872.377 44.74C872.057 45.2867 871.897 45.94 871.897 46.7C871.897 47.46 872.057 48.12 872.377 48.68C872.697 49.24 873.131 49.6733 873.677 49.98C874.224 50.2867 874.844 50.44 875.537 50.44C876.111 50.44 876.644 50.32 877.137 50.08C877.644 49.8267 878.071 49.44 878.417 48.92L879.877 49.84C879.464 50.5733 878.877 51.14 878.117 51.54C877.371 51.9267 876.517 52.12 875.557 52.12ZM882.226 52V41.4H884.146V52H882.226ZM883.186 39.36C882.813 39.36 882.5 39.24 882.246 39C882.006 38.76 881.886 38.4667 881.886 38.12C881.886 37.76 882.006 37.46 882.246 37.22C882.5 36.98 882.813 36.86 883.186 36.86C883.56 36.86 883.866 36.98 884.106 37.22C884.36 37.4467 884.486 37.7333 884.486 38.08C884.486 38.44 884.366 38.7467 884.126 39C883.886 39.24 883.573 39.36 883.186 39.36ZM894.392 52V49.76L894.292 49.34V45.52C894.292 44.7067 894.052 44.08 893.572 43.64C893.106 43.1867 892.399 42.96 891.452 42.96C890.826 42.96 890.212 43.0667 889.612 43.28C889.012 43.48 888.506 43.7533 888.092 44.1L887.292 42.66C887.839 42.22 888.492 41.8867 889.252 41.66C890.026 41.42 890.832 41.3 891.672 41.3C893.126 41.3 894.246 41.6533 895.032 42.36C895.819 43.0667 896.212 44.1467 896.212 45.6V52H894.392ZM890.912 52.12C890.126 52.12 889.432 51.9867 888.832 51.72C888.246 51.4533 887.792 51.0867 887.472 50.62C887.152 50.14 886.992 49.6 886.992 49C886.992 48.4267 887.126 47.9067 887.392 47.44C887.672 46.9733 888.119 46.6 888.732 46.32C889.359 46.04 890.199 45.9 891.252 45.9H894.612V47.28H891.332C890.372 47.28 889.726 47.44 889.392 47.76C889.059 48.08 888.892 48.4667 888.892 48.92C888.892 49.44 889.099 49.86 889.512 50.18C889.926 50.4867 890.499 50.64 891.232 50.64C891.952 50.64 892.579 50.48 893.112 50.16C893.659 49.84 894.052 49.3733 894.292 48.76L894.672 50.08C894.419 50.7067 893.972 51.2067 893.332 51.58C892.692 51.94 891.886 52.12 890.912 52.12ZM899.765 52V37.16H901.685V52H899.765ZM908.391 52.12C907.511 52.12 906.671 52 905.871 51.76C905.085 51.52 904.465 51.2267 904.011 50.88L904.811 49.36C905.265 49.6667 905.825 49.9267 906.491 50.14C907.158 50.3533 907.838 50.46 908.531 50.46C909.425 50.46 910.065 50.3333 910.451 50.08C910.851 49.8267 911.051 49.4733 911.051 49.02C911.051 48.6867 910.931 48.4267 910.691 48.24C910.451 48.0533 910.131 47.9133 909.731 47.82C909.345 47.7267 908.911 47.6467 908.431 47.58C907.951 47.5 907.471 47.4067 906.991 47.3C906.511 47.18 906.071 47.02 905.671 46.82C905.271 46.6067 904.951 46.32 904.711 45.96C904.471 45.5867 904.351 45.0933 904.351 44.48C904.351 43.84 904.531 43.28 904.891 42.8C905.251 42.32 905.758 41.9533 906.411 41.7C907.078 41.4333 907.865 41.3 908.771 41.3C909.465 41.3 910.165 41.3867 910.871 41.56C911.591 41.72 912.178 41.9533 912.631 42.26L911.811 43.78C911.331 43.46 910.831 43.24 910.311 43.12C909.791 43 909.271 42.94 908.751 42.94C907.911 42.94 907.285 43.08 906.871 43.36C906.458 43.6267 906.251 43.9733 906.251 44.4C906.251 44.76 906.371 45.04 906.611 45.24C906.865 45.4267 907.185 45.5733 907.571 45.68C907.971 45.7867 908.411 45.88 908.891 45.96C909.371 46.0267 909.851 46.12 910.331 46.24C910.811 46.3467 911.245 46.5 911.631 46.7C912.031 46.9 912.351 47.18 912.591 47.54C912.845 47.9 912.971 48.38 912.971 48.98C912.971 49.62 912.785 50.1733 912.411 50.64C912.038 51.1067 911.511 51.4733 910.831 51.74C910.151 51.9933 909.338 52.12 908.391 52.12Z" fill="#8B8B8B"/>
<path d="M875.5 77H856.5C851.275 77 847 81.2736 847 86.5V105.5C847 110.725 851.275 115 856.5 115H875.5C880.725 115 885 110.725 885 105.5V86.5C885 81.2736 880.725 77 875.5 77ZM866 103.916C861.627 103.916 858.083 100.371 858.083 96C858.083 91.6271 861.627 88.0832 866 88.0832C870.371 88.0832 873.917 91.6271 873.917 96C873.917 100.371 870.371 103.916 866 103.916ZM876.292 88.0832C874.979 88.0832 873.917 87.0196 873.917 85.7082C873.917 84.3967 874.979 83.3332 876.292 83.3332C877.605 83.3332 878.667 84.3967 878.667 85.7082C878.667 87.0196 877.605 88.0832 876.292 88.0832Z" fill="#282828"/>
<path d="M924.959 77C914.482 77 905.959 85.5228 905.959 96C905.959 99.6862 907.016 103.24 909.022 106.326L906.062 113.235C905.858 113.71 905.964 114.263 906.33 114.629C906.573 114.871 906.897 115 907.226 115C907.394 115 907.564 114.967 907.725 114.897L914.633 111.936C917.719 113.944 921.273 115 924.959 115C935.436 115 943.959 106.477 943.959 96C943.959 85.5228 935.436 77 924.959 77ZM934.711 102.801C934.711 102.801 933.132 104.827 931.99 105.301C929.088 106.502 924.991 105.301 920.324 100.635C915.658 95.9678 914.456 91.871 915.658 88.969C916.132 87.826 918.158 86.2477 918.158 86.2477C918.707 85.8197 919.561 85.8729 920.053 86.3652L922.345 88.6573C922.838 89.1496 922.838 89.9561 922.345 90.4484L920.907 91.8858C920.907 91.8858 920.324 93.6349 923.823 97.1355C927.323 100.635 929.073 100.052 929.073 100.052L930.511 98.6137C931.003 98.1214 931.809 98.1214 932.302 98.6137L934.594 100.906C935.086 101.398 935.139 102.25 934.711 102.801Z" fill="#282828"/>
</svg>
