<svg width="1360" height="194" viewBox="0 0 1360 194" fill="none" xmlns="http://www.w3.org/2000/svg">
<path d="M0 12C0 5.37258 5.37258 0 12 0H768C774.627 0 780 5.37258 780 12V182C780 188.627 774.627 194 768 194H12C5.37258 194 0 188.627 0 182V12Z" fill="#F1F3F4"/>
<path d="M31.98 52L38.32 38H40.3L46.66 52H44.56L38.9 39.12H39.7L34.04 52H31.98ZM34.68 48.5L35.22 46.9H43.1L43.68 48.5H34.68ZM52.7508 52.12C51.7241 52.12 50.8041 51.8933 49.9908 51.44C49.1908 50.9867 48.5574 50.3533 48.0908 49.54C47.6241 48.7267 47.3908 47.78 47.3908 46.7C47.3908 45.62 47.6241 44.68 48.0908 43.88C48.5574 43.0667 49.1908 42.4333 49.9908 41.98C50.8041 41.5267 51.7241 41.3 52.7508 41.3C53.6441 41.3 54.4508 41.5 55.1708 41.9C55.8908 42.3 56.4641 42.9 56.8908 43.7C57.3308 44.5 57.5508 45.5 57.5508 46.7C57.5508 47.9 57.3374 48.9 56.9108 49.7C56.4974 50.5 55.9308 51.1067 55.2108 51.52C54.4908 51.92 53.6708 52.12 52.7508 52.12ZM52.9108 50.44C53.5774 50.44 54.1774 50.2867 54.7108 49.98C55.2574 49.6733 55.6841 49.24 55.9908 48.68C56.3108 48.1067 56.4708 47.4467 56.4708 46.7C56.4708 45.94 56.3108 45.2867 55.9908 44.74C55.6841 44.18 55.2574 43.7467 54.7108 43.44C54.1774 43.1333 53.5774 42.98 52.9108 42.98C52.2308 42.98 51.6241 43.1333 51.0908 43.44C50.5574 43.7467 50.1308 44.18 49.8108 44.74C49.4908 45.2867 49.3308 45.94 49.3308 46.7C49.3308 47.4467 49.4908 48.1067 49.8108 48.68C50.1308 49.24 50.5574 49.6733 51.0908 49.98C51.6241 50.2867 52.2308 50.44 52.9108 50.44ZM56.5308 52V49.14L56.6508 46.68L56.4508 44.22V37.16H58.3708V52H56.5308ZM66.3836 52.12C65.3569 52.12 64.4369 51.8933 63.6236 51.44C62.8236 50.9867 62.1903 50.3533 61.7236 49.54C61.2569 48.7267 61.0236 47.78 61.0236 46.7C61.0236 45.62 61.2569 44.68 61.7236 43.88C62.1903 43.0667 62.8236 42.4333 63.6236 41.98C64.4369 41.5267 65.3569 41.3 66.3836 41.3C67.2769 41.3 68.0836 41.5 68.8036 41.9C69.5236 42.3 70.0969 42.9 70.5236 43.7C70.9636 44.5 71.1836 45.5 71.1836 46.7C71.1836 47.9 70.9703 48.9 70.5436 49.7C70.1303 50.5 69.5636 51.1067 68.8436 51.52C68.1236 51.92 67.3036 52.12 66.3836 52.12ZM66.5436 50.44C67.2103 50.44 67.8103 50.2867 68.3436 49.98C68.8903 49.6733 69.3169 49.24 69.6236 48.68C69.9436 48.1067 70.1036 47.4467 70.1036 46.7C70.1036 45.94 69.9436 45.2867 69.6236 44.74C69.3169 44.18 68.8903 43.7467 68.3436 43.44C67.8103 43.1333 67.2103 42.98 66.5436 42.98C65.8636 42.98 65.2569 43.1333 64.7236 43.44C64.1903 43.7467 63.7636 44.18 63.4436 44.74C63.1236 45.2867 62.9636 45.94 62.9636 46.7C62.9636 47.4467 63.1236 48.1067 63.4436 48.68C63.7636 49.24 64.1903 49.6733 64.7236 49.98C65.2569 50.2867 65.8636 50.44 66.5436 50.44ZM70.1636 52V49.14L70.2836 46.68L70.0836 44.22V37.16H72.0036V52H70.1636ZM75.6364 52V41.4H77.4764V44.28L77.2964 43.56C77.5897 42.8267 78.0831 42.2667 78.7764 41.88C79.4697 41.4933 80.3231 41.3 81.3364 41.3V43.16C81.2564 43.1467 81.1764 43.14 81.0964 43.14C81.0297 43.14 80.9631 43.14 80.8964 43.14C79.8697 43.14 79.0564 43.4467 78.4564 44.06C77.8564 44.6733 77.5564 45.56 77.5564 46.72V52H75.6364ZM88.3252 52.12C87.1918 52.12 86.1918 51.8867 85.3252 51.42C84.4718 50.9533 83.8052 50.3133 83.3252 49.5C82.8585 48.6867 82.6252 47.7533 82.6252 46.7C82.6252 45.6467 82.8518 44.7133 83.3052 43.9C83.7718 43.0867 84.4052 42.4533 85.2052 42C86.0185 41.5333 86.9318 41.3 87.9452 41.3C88.9718 41.3 89.8785 41.5267 90.6652 41.98C91.4518 42.4333 92.0652 43.0733 92.5052 43.9C92.9585 44.7133 93.1852 45.6667 93.1852 46.76C93.1852 46.84 93.1785 46.9333 93.1652 47.04C93.1652 47.1467 93.1585 47.2467 93.1452 47.34H84.1252V45.96H92.1452L91.3652 46.44C91.3785 45.76 91.2385 45.1533 90.9452 44.62C90.6518 44.0867 90.2452 43.6733 89.7252 43.38C89.2185 43.0733 88.6252 42.92 87.9452 42.92C87.2785 42.92 86.6852 43.0733 86.1652 43.38C85.6452 43.6733 85.2385 44.0933 84.9452 44.64C84.6518 45.1733 84.5052 45.7867 84.5052 46.48V46.8C84.5052 47.5067 84.6652 48.14 84.9852 48.7C85.3185 49.2467 85.7785 49.6733 86.3652 49.98C86.9518 50.2867 87.6252 50.44 88.3852 50.44C89.0118 50.44 89.5785 50.3333 90.0852 50.12C90.6052 49.9067 91.0585 49.5867 91.4452 49.16L92.5052 50.4C92.0252 50.96 91.4252 51.3867 90.7052 51.68C89.9985 51.9733 89.2052 52.12 88.3252 52.12ZM98.8913 52.12C98.0113 52.12 97.1713 52 96.3713 51.76C95.5846 51.52 94.9646 51.2267 94.5113 50.88L95.3113 49.36C95.7646 49.6667 96.3246 49.9267 96.9913 50.14C97.6579 50.3533 98.3379 50.46 99.0312 50.46C99.9246 50.46 100.565 50.3333 100.951 50.08C101.351 49.8267 101.551 49.4733 101.551 49.02C101.551 48.6867 101.431 48.4267 101.191 48.24C100.951 48.0533 100.631 47.9133 100.231 47.82C99.8446 47.7267 99.4113 47.6467 98.9313 47.58C98.4513 47.5 97.9713 47.4067 97.4913 47.3C97.0113 47.18 96.5713 47.02 96.1713 46.82C95.7713 46.6067 95.4513 46.32 95.2113 45.96C94.9713 45.5867 94.8513 45.0933 94.8513 44.48C94.8513 43.84 95.0313 43.28 95.3913 42.8C95.7513 42.32 96.2579 41.9533 96.9113 41.7C97.5779 41.4333 98.3646 41.3 99.2713 41.3C99.9646 41.3 100.665 41.3867 101.371 41.56C102.091 41.72 102.678 41.9533 103.131 42.26L102.311 43.78C101.831 43.46 101.331 43.24 100.811 43.12C100.291 43 99.7713 42.94 99.2513 42.94C98.4113 42.94 97.7846 43.08 97.3713 43.36C96.9579 43.6267 96.7513 43.9733 96.7513 44.4C96.7513 44.76 96.8713 45.04 97.1113 45.24C97.3646 45.4267 97.6846 45.5733 98.0713 45.68C98.4713 45.7867 98.9113 45.88 99.3913 45.96C99.8713 46.0267 100.351 46.12 100.831 46.24C101.311 46.3467 101.745 46.5 102.131 46.7C102.531 46.9 102.851 47.18 103.091 47.54C103.345 47.9 103.471 48.38 103.471 48.98C103.471 49.62 103.285 50.1733 102.911 50.64C102.538 51.1067 102.011 51.4733 101.331 51.74C100.651 51.9933 99.8379 52.12 98.8913 52.12ZM108.911 52.12C108.031 52.12 107.191 52 106.391 51.76C105.604 51.52 104.984 51.2267 104.531 50.88L105.331 49.36C105.784 49.6667 106.344 49.9267 107.011 50.14C107.677 50.3533 108.357 50.46 109.051 50.46C109.944 50.46 110.584 50.3333 110.971 50.08C111.371 49.8267 111.571 49.4733 111.571 49.02C111.571 48.6867 111.451 48.4267 111.211 48.24C110.971 48.0533 110.651 47.9133 110.251 47.82C109.864 47.7267 109.431 47.6467 108.951 47.58C108.471 47.5 107.991 47.4067 107.511 47.3C107.031 47.18 106.591 47.02 106.191 46.82C105.791 46.6067 105.471 46.32 105.231 45.96C104.991 45.5867 104.871 45.0933 104.871 44.48C104.871 43.84 105.051 43.28 105.411 42.8C105.771 42.32 106.277 41.9533 106.931 41.7C107.597 41.4333 108.384 41.3 109.291 41.3C109.984 41.3 110.684 41.3867 111.391 41.56C112.111 41.72 112.697 41.9533 113.151 42.26L112.331 43.78C111.851 43.46 111.351 43.24 110.831 43.12C110.311 43 109.791 42.94 109.271 42.94C108.431 42.94 107.804 43.08 107.391 43.36C106.977 43.6267 106.771 43.9733 106.771 44.4C106.771 44.76 106.891 45.04 107.131 45.24C107.384 45.4267 107.704 45.5733 108.091 45.68C108.491 45.7867 108.931 45.88 109.411 45.96C109.891 46.0267 110.371 46.12 110.851 46.24C111.331 46.3467 111.764 46.5 112.151 46.7C112.551 46.9 112.871 47.18 113.111 47.54C113.364 47.9 113.491 48.38 113.491 48.98C113.491 49.62 113.304 50.1733 112.931 50.64C112.557 51.1067 112.031 51.4733 111.351 51.74C110.671 51.9933 109.857 52.12 108.911 52.12Z" fill="#8B8B8B"/>
<path d="M42.36 110L33.08 82H38.48L46.76 107.32H44.08L52.68 82H57.48L65.84 107.32H63.24L71.72 82H76.68L67.4 110H61.88L54.24 87.16H55.68L47.92 110H42.36ZM91.9947 110V105.68L91.7147 104.76V97.2C91.7147 95.7333 91.2747 94.6 90.3947 93.8C89.5147 92.9733 88.1814 92.56 86.3947 92.56C85.1947 92.56 84.008 92.7467 82.8347 93.12C81.688 93.4933 80.7147 94.0133 79.9147 94.68L77.9547 91.04C79.1014 90.16 80.4614 89.5067 82.0347 89.08C83.6347 88.6267 85.288 88.4 86.9947 88.4C90.088 88.4 92.4747 89.1467 94.1547 90.64C95.8614 92.1067 96.7147 94.3867 96.7147 97.48V110H91.9947ZM85.2747 110.28C83.6747 110.28 82.2747 110.013 81.0747 109.48C79.8747 108.92 78.9414 108.16 78.2747 107.2C77.6347 106.213 77.3147 105.107 77.3147 103.88C77.3147 102.68 77.5947 101.6 78.1547 100.64C78.7414 99.68 79.688 98.92 80.9947 98.36C82.3014 97.8 84.0347 97.52 86.1947 97.52H92.3947V100.84H86.5547C84.848 100.84 83.7014 101.12 83.1147 101.68C82.528 102.213 82.2347 102.88 82.2347 103.68C82.2347 104.587 82.5947 105.307 83.3147 105.84C84.0347 106.373 85.0347 106.64 86.3147 106.64C87.5414 106.64 88.6347 106.36 89.5947 105.8C90.5814 105.24 91.288 104.413 91.7147 103.32L92.5547 106.32C92.0747 107.573 91.208 108.547 89.9547 109.24C88.728 109.933 87.168 110.28 85.2747 110.28ZM103.132 110V80.32H108.132V110H103.132ZM114.694 110V80.32H119.694V110H114.694ZM132.857 110.28C131.07 110.28 129.35 110.053 127.697 109.6C126.07 109.12 124.777 108.547 123.817 107.88L125.737 104.08C126.697 104.693 127.843 105.2 129.177 105.6C130.51 106 131.843 106.2 133.177 106.2C134.75 106.2 135.883 105.987 136.577 105.56C137.297 105.133 137.657 104.56 137.657 103.84C137.657 103.253 137.417 102.813 136.937 102.52C136.457 102.2 135.83 101.96 135.057 101.8C134.283 101.64 133.417 101.493 132.457 101.36C131.523 101.227 130.577 101.053 129.617 100.84C128.683 100.6 127.83 100.267 127.057 99.84C126.283 99.3867 125.657 98.7867 125.177 98.04C124.697 97.2933 124.457 96.3067 124.457 95.08C124.457 93.72 124.843 92.5467 125.617 91.56C126.39 90.5467 127.47 89.7733 128.857 89.24C130.27 88.68 131.937 88.4 133.857 88.4C135.297 88.4 136.75 88.56 138.217 88.88C139.683 89.2 140.897 89.6533 141.857 90.24L139.937 94.04C138.923 93.4267 137.897 93.0133 136.857 92.8C135.843 92.56 134.83 92.44 133.817 92.44C132.297 92.44 131.163 92.6667 130.417 93.12C129.697 93.5733 129.337 94.1467 129.337 94.84C129.337 95.48 129.577 95.96 130.057 96.28C130.537 96.6 131.163 96.8533 131.937 97.04C132.71 97.2267 133.563 97.3867 134.497 97.52C135.457 97.6267 136.403 97.8 137.337 98.04C138.27 98.28 139.123 98.6133 139.897 99.04C140.697 99.44 141.337 100.013 141.817 100.76C142.297 101.507 142.537 102.48 142.537 103.68C142.537 105.013 142.137 106.173 141.337 107.16C140.563 108.147 139.457 108.92 138.017 109.48C136.577 110.013 134.857 110.28 132.857 110.28ZM154.883 110.28C152.536 110.28 150.723 109.68 149.442 108.48C148.163 107.253 147.523 105.453 147.523 103.08V83.92H152.523V102.96C152.523 103.973 152.776 104.76 153.283 105.32C153.816 105.88 154.549 106.16 155.483 106.16C156.603 106.16 157.536 105.867 158.283 105.28L159.683 108.84C159.096 109.32 158.376 109.68 157.523 109.92C156.669 110.16 155.789 110.28 154.883 110.28ZM144.003 92.8V88.8H158.243V92.8H144.003ZM163.796 110V88.64H168.556V94.52L167.996 92.8C168.636 91.36 169.636 90.2667 170.996 89.52C172.382 88.7733 174.102 88.4 176.156 88.4V93.16C175.942 93.1067 175.742 93.08 175.556 93.08C175.369 93.0533 175.182 93.04 174.996 93.04C173.102 93.04 171.596 93.6 170.476 94.72C169.356 95.8133 168.796 97.4533 168.796 99.64V110H163.796ZM192.034 110V105.68L191.754 104.76V97.2C191.754 95.7333 191.314 94.6 190.434 93.8C189.554 92.9733 188.22 92.56 186.434 92.56C185.234 92.56 184.047 92.7467 182.874 93.12C181.727 93.4933 180.754 94.0133 179.954 94.68L177.994 91.04C179.14 90.16 180.5 89.5067 182.074 89.08C183.674 88.6267 185.327 88.4 187.034 88.4C190.127 88.4 192.514 89.1467 194.194 90.64C195.9 92.1067 196.754 94.3867 196.754 97.48V110H192.034ZM185.314 110.28C183.714 110.28 182.314 110.013 181.114 109.48C179.914 108.92 178.98 108.16 178.314 107.2C177.674 106.213 177.354 105.107 177.354 103.88C177.354 102.68 177.634 101.6 178.194 100.64C178.78 99.68 179.727 98.92 181.034 98.36C182.34 97.8 184.074 97.52 186.234 97.52H192.434V100.84H186.594C184.887 100.84 183.74 101.12 183.154 101.68C182.567 102.213 182.274 102.88 182.274 103.68C182.274 104.587 182.634 105.307 183.354 105.84C184.074 106.373 185.074 106.64 186.354 106.64C187.58 106.64 188.674 106.36 189.634 105.8C190.62 105.24 191.327 104.413 191.754 103.32L192.594 106.32C192.114 107.573 191.247 108.547 189.994 109.24C188.767 109.933 187.207 110.28 185.314 110.28ZM218.691 110.4C217.651 110.4 216.651 110.32 215.691 110.16C214.731 110 213.837 109.747 213.011 109.4L213.811 105.2C214.424 105.467 215.104 105.68 215.851 105.84C216.624 106 217.411 106.08 218.211 106.08C219.917 106.08 221.251 105.707 222.211 104.96C223.171 104.213 223.651 103.107 223.651 101.64C223.651 100.173 223.157 99.0667 222.171 98.32C221.211 97.5733 219.891 97.2 218.211 97.2C217.651 97.2 217.091 97.24 216.531 97.32C215.997 97.4 215.504 97.5067 215.051 97.64L214.131 95.28L223.411 84.68L224.011 88.16C222.971 87.4133 221.837 86.8533 220.611 86.48C219.411 86.1067 218.117 85.92 216.731 85.92C214.064 85.92 212.037 86.64 210.651 88.08C209.291 89.4933 208.611 91.5333 208.611 94.2V110H203.411V94.08C203.411 91.52 203.917 89.3067 204.931 87.44C205.971 85.5733 207.464 84.1333 209.411 83.12C211.384 82.1067 213.731 81.6 216.451 81.6C217.624 81.6 218.797 81.7067 219.971 81.92C221.171 82.1067 222.304 82.4 223.371 82.8C224.464 83.2 225.411 83.7067 226.211 84.32V87.6L218.211 96.6L216.051 93.64C216.504 93.5067 216.984 93.4133 217.491 93.36C218.024 93.3067 218.571 93.28 219.131 93.28C220.944 93.28 222.584 93.6133 224.051 94.28C225.544 94.9467 226.731 95.92 227.611 97.2C228.491 98.4533 228.931 100.013 228.931 101.88C228.931 103.693 228.491 105.24 227.611 106.52C226.731 107.773 225.517 108.733 223.971 109.4C222.451 110.067 220.691 110.4 218.691 110.4ZM244.07 110.28C241.697 110.28 239.617 109.813 237.83 108.88C236.07 107.92 234.697 106.613 233.71 104.96C232.75 103.307 232.27 101.427 232.27 99.32C232.27 97.1867 232.737 95.3067 233.67 93.68C234.63 92.0267 235.937 90.7333 237.59 89.8C239.27 88.8667 241.177 88.4 243.31 88.4C245.39 88.4 247.243 88.8533 248.87 89.76C250.497 90.6667 251.777 91.9467 252.71 93.6C253.643 95.2533 254.11 97.2 254.11 99.44C254.11 99.6533 254.097 99.8933 254.07 100.16C254.07 100.427 254.057 100.68 254.03 100.92H236.23V97.6H251.39L249.43 98.64C249.457 97.4133 249.203 96.3333 248.67 95.4C248.137 94.4667 247.403 93.7333 246.47 93.2C245.563 92.6667 244.51 92.4 243.31 92.4C242.083 92.4 241.003 92.6667 240.07 93.2C239.163 93.7333 238.443 94.48 237.91 95.44C237.403 96.3733 237.15 97.48 237.15 98.76V99.56C237.15 100.84 237.443 101.973 238.03 102.96C238.617 103.947 239.443 104.707 240.51 105.24C241.577 105.773 242.803 106.04 244.19 106.04C245.39 106.04 246.47 105.853 247.43 105.48C248.39 105.107 249.243 104.52 249.99 103.72L252.67 106.8C251.71 107.92 250.497 108.787 249.03 109.4C247.59 109.987 245.937 110.28 244.07 110.28ZM277.888 81.6C280.448 81.6 282.621 82.1467 284.408 83.24C286.221 84.3067 287.608 85.8667 288.568 87.92C289.528 89.9733 290.008 92.5067 290.008 95.52C290.008 98.72 289.421 101.427 288.248 103.64C287.101 105.853 285.501 107.533 283.448 108.68C281.394 109.827 279.008 110.4 276.288 110.4C274.874 110.4 273.528 110.253 272.248 109.96C270.968 109.667 269.861 109.213 268.928 108.6L270.848 104.68C271.621 105.187 272.461 105.547 273.368 105.76C274.274 105.947 275.208 106.04 276.168 106.04C278.808 106.04 280.901 105.227 282.448 103.6C283.994 101.973 284.768 99.5733 284.768 96.4C284.768 95.8933 284.754 95.3067 284.728 94.64C284.701 93.9467 284.608 93.2533 284.448 92.56L286.048 94.32C285.594 95.4133 284.941 96.3333 284.088 97.08C283.234 97.8 282.234 98.3467 281.088 98.72C279.941 99.0933 278.674 99.28 277.288 99.28C275.474 99.28 273.834 98.9333 272.368 98.24C270.928 97.52 269.781 96.52 268.928 95.24C268.074 93.9333 267.648 92.4133 267.648 90.68C267.648 88.8133 268.101 87.2133 269.008 85.88C269.914 84.52 271.141 83.4667 272.688 82.72C274.261 81.9733 275.994 81.6 277.888 81.6ZM278.168 85.68C277.101 85.68 276.154 85.88 275.328 86.28C274.501 86.6533 273.848 87.2 273.368 87.92C272.914 88.6133 272.688 89.4533 272.688 90.44C272.688 91.9067 273.194 93.0667 274.208 93.92C275.221 94.7733 276.581 95.2 278.288 95.2C279.408 95.2 280.394 95 281.248 94.6C282.101 94.1733 282.768 93.6 283.248 92.88C283.728 92.1333 283.968 91.3067 283.968 90.4C283.968 89.52 283.741 88.7333 283.288 88.04C282.834 87.32 282.181 86.7467 281.328 86.32C280.474 85.8933 279.421 85.68 278.168 85.68ZM294.161 100.96V96.8H305.161V100.96H294.161ZM312.81 110V84L315.09 86.36H306.89V82H318.01V110H312.81ZM332.365 110.4C330.391 110.4 328.458 110.12 326.565 109.56C324.698 108.973 323.125 108.173 321.845 107.16L324.085 103.12C325.098 103.947 326.325 104.613 327.765 105.12C329.205 105.627 330.711 105.88 332.285 105.88C334.151 105.88 335.605 105.507 336.645 104.76C337.685 103.987 338.205 102.947 338.205 101.64C338.205 100.36 337.725 99.3467 336.765 98.6C335.805 97.8533 334.258 97.48 332.125 97.48H329.565V93.92L337.565 84.4L338.245 86.36H323.205V82H342.285V85.48L334.285 95L331.565 93.4H333.125C336.565 93.4 339.138 94.1733 340.845 95.72C342.578 97.24 343.445 99.2 343.445 101.6C343.445 103.173 343.045 104.627 342.245 105.96C341.445 107.293 340.218 108.373 338.565 109.2C336.938 110 334.871 110.4 332.365 110.4ZM347.046 116.04L349.366 107.2L350.046 110.16C349.113 110.16 348.326 109.88 347.686 109.32C347.073 108.733 346.766 107.947 346.766 106.96C346.766 105.947 347.073 105.147 347.686 104.56C348.326 103.947 349.099 103.64 350.006 103.64C350.939 103.64 351.713 103.947 352.326 104.56C352.939 105.173 353.246 105.973 353.246 106.96C353.246 107.227 353.219 107.52 353.166 107.84C353.113 108.133 353.019 108.48 352.886 108.88C352.779 109.28 352.593 109.787 352.326 110.4L350.286 116.04H347.046ZM372.146 110V84L374.426 86.36H366.226V82H377.346V110H372.146ZM394.581 110.4C392.367 110.4 390.367 109.84 388.581 108.72C386.821 107.6 385.434 105.973 384.421 103.84C383.407 101.68 382.901 99.0667 382.901 96C382.901 92.9333 383.407 90.3333 384.421 88.2C385.434 86.04 386.821 84.4 388.581 83.28C390.367 82.16 392.367 81.6 394.581 81.6C396.821 81.6 398.821 82.16 400.581 83.28C402.341 84.4 403.727 86.04 404.741 88.2C405.781 90.3333 406.301 92.9333 406.301 96C406.301 99.0667 405.781 101.68 404.741 103.84C403.727 105.973 402.341 107.6 400.581 108.72C398.821 109.84 396.821 110.4 394.581 110.4ZM394.581 105.88C395.887 105.88 397.021 105.533 397.981 104.84C398.941 104.12 399.687 103.027 400.221 101.56C400.781 100.093 401.061 98.24 401.061 96C401.061 93.7333 400.781 91.88 400.221 90.44C399.687 88.9733 398.941 87.8933 397.981 87.2C397.021 86.48 395.887 86.12 394.581 86.12C393.327 86.12 392.207 86.48 391.221 87.2C390.261 87.8933 389.501 88.9733 388.941 90.44C388.407 91.88 388.141 93.7333 388.141 96C388.141 98.24 388.407 100.093 388.941 101.56C389.501 103.027 390.261 104.12 391.221 104.84C392.207 105.533 393.327 105.88 394.581 105.88ZM414.256 110V84L416.536 86.36H408.336V82H419.456V110H414.256ZM429.69 110L441.25 84.08L442.61 86.4H426.73L429.21 83.88V91.16H424.37V82H446.13V85.48L435.25 110H429.69ZM458.786 81.6C461.346 81.6 463.519 82.1467 465.306 83.24C467.119 84.3067 468.506 85.8667 469.466 87.92C470.426 89.9733 470.906 92.5067 470.906 95.52C470.906 98.72 470.319 101.427 469.146 103.64C467.999 105.853 466.399 107.533 464.346 108.68C462.293 109.827 459.906 110.4 457.186 110.4C455.773 110.4 454.426 110.253 453.146 109.96C451.866 109.667 450.759 109.213 449.826 108.6L451.746 104.68C452.519 105.187 453.359 105.547 454.266 105.76C455.173 105.947 456.106 106.04 457.066 106.04C459.706 106.04 461.799 105.227 463.346 103.6C464.893 101.973 465.666 99.5733 465.666 96.4C465.666 95.8933 465.653 95.3067 465.626 94.64C465.599 93.9467 465.506 93.2533 465.346 92.56L466.946 94.32C466.493 95.4133 465.839 96.3333 464.986 97.08C464.133 97.8 463.133 98.3467 461.986 98.72C460.839 99.0933 459.573 99.28 458.186 99.28C456.373 99.28 454.733 98.9333 453.266 98.24C451.826 97.52 450.679 96.52 449.826 95.24C448.973 93.9333 448.546 92.4133 448.546 90.68C448.546 88.8133 448.999 87.2133 449.906 85.88C450.813 84.52 452.039 83.4667 453.586 82.72C455.159 81.9733 456.893 81.6 458.786 81.6ZM459.066 85.68C457.999 85.68 457.053 85.88 456.226 86.28C455.399 86.6533 454.746 87.2 454.266 87.92C453.813 88.6133 453.586 89.4533 453.586 90.44C453.586 91.9067 454.093 93.0667 455.106 93.92C456.119 94.7733 457.479 95.2 459.186 95.2C460.306 95.2 461.293 95 462.146 94.6C462.999 94.1733 463.666 93.6 464.146 92.88C464.626 92.1333 464.866 91.3067 464.866 90.4C464.866 89.52 464.639 88.7333 464.186 88.04C463.733 87.32 463.079 86.7467 462.226 86.32C461.373 85.8933 460.319 85.68 459.066 85.68ZM487.479 110V82H500.599C503.959 82 506.519 82.6667 508.279 84C510.039 85.3067 510.919 87.0667 510.919 89.28C510.919 90.7733 510.572 92.0533 509.879 93.12C509.185 94.16 508.252 94.9733 507.079 95.56C505.932 96.12 504.679 96.4 503.319 96.4L504.039 94.96C505.612 94.96 507.025 95.2533 508.279 95.84C509.532 96.4 510.519 97.2267 511.239 98.32C511.985 99.4133 512.359 100.773 512.359 102.4C512.359 104.8 511.439 106.667 509.599 108C507.759 109.333 505.025 110 501.399 110H487.479ZM492.679 105.92H501.079C503.025 105.92 504.519 105.6 505.559 104.96C506.599 104.32 507.119 103.293 507.119 101.88C507.119 100.493 506.599 99.48 505.559 98.84C504.519 98.1733 503.025 97.84 501.079 97.84H492.279V93.8H500.039C501.852 93.8 503.239 93.48 504.199 92.84C505.185 92.2 505.679 91.24 505.679 89.96C505.679 88.6533 505.185 87.68 504.199 87.04C503.239 86.4 501.852 86.08 500.039 86.08H492.679V105.92ZM527.468 110.28C525.095 110.28 523.015 109.813 521.228 108.88C519.468 107.92 518.095 106.613 517.108 104.96C516.148 103.307 515.668 101.427 515.668 99.32C515.668 97.1867 516.135 95.3067 517.068 93.68C518.028 92.0267 519.335 90.7333 520.988 89.8C522.668 88.8667 524.575 88.4 526.708 88.4C528.788 88.4 530.642 88.8533 532.268 89.76C533.895 90.6667 535.175 91.9467 536.108 93.6C537.042 95.2533 537.508 97.2 537.508 99.44C537.508 99.6533 537.495 99.8933 537.468 100.16C537.468 100.427 537.455 100.68 537.428 100.92H519.628V97.6H534.788L532.828 98.64C532.855 97.4133 532.602 96.3333 532.068 95.4C531.535 94.4667 530.802 93.7333 529.868 93.2C528.962 92.6667 527.908 92.4 526.708 92.4C525.482 92.4 524.402 92.6667 523.468 93.2C522.562 93.7333 521.842 94.48 521.308 95.44C520.802 96.3733 520.548 97.48 520.548 98.76V99.56C520.548 100.84 520.842 101.973 521.428 102.96C522.015 103.947 522.842 104.707 523.908 105.24C524.975 105.773 526.202 106.04 527.588 106.04C528.788 106.04 529.868 105.853 530.828 105.48C531.788 105.107 532.642 104.52 533.388 103.72L536.068 106.8C535.108 107.92 533.895 108.787 532.428 109.4C530.988 109.987 529.335 110.28 527.468 110.28ZM542.311 110V88.64H547.071V94.52L546.511 92.8C547.151 91.36 548.151 90.2667 549.511 89.52C550.898 88.7733 552.618 88.4 554.671 88.4V93.16C554.458 93.1067 554.258 93.08 554.071 93.08C553.885 93.0533 553.698 93.04 553.511 93.04C551.618 93.04 550.111 93.6 548.991 94.72C547.871 95.8133 547.311 97.4533 547.311 99.64V110H542.311ZM558.913 110V80.32H563.913V110H558.913ZM570.475 110V88.64H575.475V110H570.475ZM572.995 85.12C572.062 85.12 571.289 84.8267 570.675 84.24C570.089 83.6533 569.795 82.9467 569.795 82.12C569.795 81.2667 570.089 80.56 570.675 80C571.289 79.4133 572.062 79.12 572.995 79.12C573.929 79.12 574.689 79.4 575.275 79.96C575.889 80.4933 576.195 81.1733 576.195 82C576.195 82.88 575.902 83.6267 575.315 84.24C574.729 84.8267 573.955 85.12 572.995 85.12ZM594.158 88.4C595.864 88.4 597.384 88.7333 598.718 89.4C600.078 90.0667 601.144 91.0933 601.918 92.48C602.691 93.84 603.078 95.6 603.078 97.76V110H598.078V98.4C598.078 96.5067 597.624 95.0933 596.718 94.16C595.838 93.2267 594.598 92.76 592.998 92.76C591.824 92.76 590.784 93 589.878 93.48C588.971 93.96 588.264 94.68 587.758 95.64C587.278 96.5733 587.038 97.76 587.038 99.2V110H582.038V88.64H586.798V94.4L585.958 92.64C586.704 91.28 587.784 90.24 589.198 89.52C590.638 88.7733 592.291 88.4 594.158 88.4ZM608.101 116.04L610.421 107.2L611.101 110.16C610.167 110.16 609.381 109.88 608.741 109.32C608.127 108.733 607.821 107.947 607.821 106.96C607.821 105.947 608.127 105.147 608.741 104.56C609.381 103.947 610.154 103.64 611.061 103.64C611.994 103.64 612.767 103.947 613.381 104.56C613.994 105.173 614.301 105.973 614.301 106.96C614.301 107.227 614.274 107.52 614.221 107.84C614.167 108.133 614.074 108.48 613.941 108.88C613.834 109.28 613.647 109.787 613.381 110.4L611.341 116.04H608.101ZM35.76 154V126H48C51.04 126 53.7067 126.587 56 127.76C58.2933 128.933 60.08 130.56 61.36 132.64C62.64 134.72 63.28 137.173 63.28 140C63.28 142.8 62.64 145.253 61.36 147.36C60.08 149.44 58.2933 151.067 56 152.24C53.7067 153.413 51.04 154 48 154H35.76ZM40.96 149.6H47.76C49.8667 149.6 51.68 149.2 53.2 148.4C54.7467 147.6 55.9333 146.48 56.76 145.04C57.6133 143.6 58.04 141.92 58.04 140C58.04 138.053 57.6133 136.373 56.76 134.96C55.9333 133.52 54.7467 132.4 53.2 131.6C51.68 130.8 49.8667 130.4 47.76 130.4H40.96V149.6ZM78.3669 154.28C75.9935 154.28 73.9135 153.813 72.1269 152.88C70.3669 151.92 68.9935 150.613 68.0069 148.96C67.0469 147.307 66.5669 145.427 66.5669 143.32C66.5669 141.187 67.0335 139.307 67.9669 137.68C68.9269 136.027 70.2335 134.733 71.8869 133.8C73.5669 132.867 75.4735 132.4 77.6069 132.4C79.6869 132.4 81.5402 132.853 83.1669 133.76C84.7935 134.667 86.0735 135.947 87.0069 137.6C87.9402 139.253 88.4069 141.2 88.4069 143.44C88.4069 143.653 88.3935 143.893 88.3669 144.16C88.3669 144.427 88.3535 144.68 88.3269 144.92H70.5269V141.6H85.6869L83.7269 142.64C83.7535 141.413 83.5002 140.333 82.9669 139.4C82.4335 138.467 81.7002 137.733 80.7669 137.2C79.8602 136.667 78.8069 136.4 77.6069 136.4C76.3802 136.4 75.3002 136.667 74.3669 137.2C73.4602 137.733 72.7402 138.48 72.2069 139.44C71.7002 140.373 71.4469 141.48 71.4469 142.76V143.56C71.4469 144.84 71.7402 145.973 72.3269 146.96C72.9135 147.947 73.7402 148.707 74.8069 149.24C75.8735 149.773 77.1002 150.04 78.4869 150.04C79.6869 150.04 80.7669 149.853 81.7269 149.48C82.6869 149.107 83.5402 148.52 84.2869 147.72L86.9669 150.8C86.0069 151.92 84.7935 152.787 83.3269 153.4C81.8869 153.987 80.2335 154.28 78.3669 154.28ZM102.25 154.28C100.436 154.28 98.8364 153.947 97.4497 153.28C96.063 152.587 94.983 151.547 94.2097 150.16C93.4364 148.747 93.0497 146.973 93.0497 144.84V132.64H98.0497V144.16C98.0497 146.08 98.4764 147.52 99.3297 148.48C100.21 149.413 101.45 149.88 103.05 149.88C104.223 149.88 105.236 149.64 106.09 149.16C106.97 148.68 107.65 147.96 108.13 147C108.636 146.04 108.89 144.853 108.89 143.44V132.64H113.89V154H109.13V148.24L109.97 150C109.25 151.387 108.196 152.453 106.81 153.2C105.423 153.92 103.903 154.28 102.25 154.28ZM128.476 154.28C126.13 154.28 124.316 153.68 123.036 152.48C121.756 151.253 121.116 149.453 121.116 147.08V127.92H126.116V146.96C126.116 147.973 126.37 148.76 126.876 149.32C127.41 149.88 128.143 150.16 129.076 150.16C130.196 150.16 131.13 149.867 131.876 149.28L133.276 152.84C132.69 153.32 131.97 153.68 131.116 153.92C130.263 154.16 129.383 154.28 128.476 154.28ZM117.596 136.8V132.8H131.836V136.8H117.596ZM143.989 154.28C142.203 154.28 140.483 154.053 138.829 153.6C137.203 153.12 135.909 152.547 134.949 151.88L136.869 148.08C137.829 148.693 138.976 149.2 140.309 149.6C141.643 150 142.976 150.2 144.309 150.2C145.883 150.2 147.016 149.987 147.709 149.56C148.429 149.133 148.789 148.56 148.789 147.84C148.789 147.253 148.549 146.813 148.069 146.52C147.589 146.2 146.963 145.96 146.189 145.8C145.416 145.64 144.549 145.493 143.589 145.36C142.656 145.227 141.709 145.053 140.749 144.84C139.816 144.6 138.963 144.267 138.189 143.84C137.416 143.387 136.789 142.787 136.309 142.04C135.829 141.293 135.589 140.307 135.589 139.08C135.589 137.72 135.976 136.547 136.749 135.56C137.523 134.547 138.603 133.773 139.989 133.24C141.403 132.68 143.069 132.4 144.989 132.4C146.429 132.4 147.883 132.56 149.349 132.88C150.816 133.2 152.029 133.653 152.989 134.24L151.069 138.04C150.056 137.427 149.029 137.013 147.989 136.8C146.976 136.56 145.963 136.44 144.949 136.44C143.429 136.44 142.296 136.667 141.549 137.12C140.829 137.573 140.469 138.147 140.469 138.84C140.469 139.48 140.709 139.96 141.189 140.28C141.669 140.6 142.296 140.853 143.069 141.04C143.843 141.227 144.696 141.387 145.629 141.52C146.589 141.627 147.536 141.8 148.469 142.04C149.403 142.28 150.256 142.613 151.029 143.04C151.829 143.44 152.469 144.013 152.949 144.76C153.429 145.507 153.669 146.48 153.669 147.68C153.669 149.013 153.269 150.173 152.469 151.16C151.696 152.147 150.589 152.92 149.149 153.48C147.709 154.013 145.989 154.28 143.989 154.28ZM167.775 154.28C165.535 154.28 163.535 153.813 161.775 152.88C160.042 151.92 158.682 150.613 157.695 148.96C156.709 147.307 156.215 145.427 156.215 143.32C156.215 141.187 156.709 139.307 157.695 137.68C158.682 136.027 160.042 134.733 161.775 133.8C163.535 132.867 165.535 132.4 167.775 132.4C169.855 132.4 171.682 132.827 173.255 133.68C174.855 134.507 176.069 135.733 176.895 137.36L173.055 139.6C172.415 138.587 171.629 137.84 170.695 137.36C169.789 136.88 168.802 136.64 167.735 136.64C166.509 136.64 165.402 136.907 164.415 137.44C163.429 137.973 162.655 138.747 162.095 139.76C161.535 140.747 161.255 141.933 161.255 143.32C161.255 144.707 161.535 145.907 162.095 146.92C162.655 147.907 163.429 148.667 164.415 149.2C165.402 149.733 166.509 150 167.735 150C168.802 150 169.789 149.76 170.695 149.28C171.629 148.8 172.415 148.053 173.055 147.04L176.895 149.28C176.069 150.88 174.855 152.12 173.255 153C171.682 153.853 169.855 154.28 167.775 154.28ZM193.142 132.4C194.849 132.4 196.369 132.733 197.702 133.4C199.062 134.067 200.129 135.093 200.902 136.48C201.676 137.84 202.062 139.6 202.062 141.76V154H197.062V142.4C197.062 140.507 196.609 139.093 195.702 138.16C194.822 137.227 193.582 136.76 191.982 136.76C190.809 136.76 189.769 137 188.862 137.48C187.956 137.96 187.249 138.68 186.742 139.64C186.262 140.573 186.022 141.76 186.022 143.2V154H181.022V124.32H186.022V138.4L184.942 136.64C185.689 135.28 186.769 134.24 188.182 133.52C189.622 132.773 191.276 132.4 193.142 132.4ZM208.405 154V124.32H213.405V154H208.405ZM233.128 154V149.68L232.848 148.76V141.2C232.848 139.733 232.408 138.6 231.528 137.8C230.648 136.973 229.314 136.56 227.528 136.56C226.328 136.56 225.141 136.747 223.968 137.12C222.821 137.493 221.848 138.013 221.048 138.68L219.088 135.04C220.234 134.16 221.594 133.507 223.168 133.08C224.768 132.627 226.421 132.4 228.128 132.4C231.221 132.4 233.608 133.147 235.288 134.64C236.994 136.107 237.848 138.387 237.848 141.48V154H233.128ZM226.408 154.28C224.808 154.28 223.408 154.013 222.208 153.48C221.008 152.92 220.074 152.16 219.408 151.2C218.768 150.213 218.448 149.107 218.448 147.88C218.448 146.68 218.728 145.6 219.288 144.64C219.874 143.68 220.821 142.92 222.128 142.36C223.434 141.8 225.168 141.52 227.328 141.52H233.528V144.84H227.688C225.981 144.84 224.834 145.12 224.248 145.68C223.661 146.213 223.368 146.88 223.368 147.68C223.368 148.587 223.728 149.307 224.448 149.84C225.168 150.373 226.168 150.64 227.448 150.64C228.674 150.64 229.768 150.36 230.728 149.8C231.714 149.24 232.421 148.413 232.848 147.32L233.688 150.32C233.208 151.573 232.341 152.547 231.088 153.24C229.861 153.933 228.301 154.28 226.408 154.28ZM256.384 132.4C258.091 132.4 259.611 132.733 260.944 133.4C262.304 134.067 263.371 135.093 264.144 136.48C264.918 137.84 265.304 139.6 265.304 141.76V154H260.304V142.4C260.304 140.507 259.851 139.093 258.944 138.16C258.064 137.227 256.824 136.76 255.224 136.76C254.051 136.76 253.011 137 252.104 137.48C251.198 137.96 250.491 138.68 249.984 139.64C249.504 140.573 249.264 141.76 249.264 143.2V154H244.264V132.64H249.024V138.4L248.184 136.64C248.931 135.28 250.011 134.24 251.424 133.52C252.864 132.773 254.518 132.4 256.384 132.4ZM280.726 154.28C278.673 154.28 276.82 153.827 275.166 152.92C273.54 151.987 272.26 150.707 271.326 149.08C270.393 147.453 269.926 145.533 269.926 143.32C269.926 141.107 270.393 139.187 271.326 137.56C272.26 135.933 273.54 134.667 275.166 133.76C276.82 132.853 278.673 132.4 280.726 132.4C282.513 132.4 284.113 132.8 285.526 133.6C286.94 134.373 288.06 135.56 288.886 137.16C289.713 138.76 290.126 140.813 290.126 143.32C290.126 145.8 289.726 147.853 288.926 149.48C288.126 151.08 287.02 152.28 285.606 153.08C284.193 153.88 282.566 154.28 280.726 154.28ZM281.326 150C282.526 150 283.593 149.733 284.526 149.2C285.486 148.667 286.246 147.893 286.806 146.88C287.393 145.867 287.686 144.68 287.686 143.32C287.686 141.933 287.393 140.747 286.806 139.76C286.246 138.747 285.486 137.973 284.526 137.44C283.593 136.907 282.526 136.64 281.326 136.64C280.126 136.64 279.046 136.907 278.086 137.44C277.153 137.973 276.393 138.747 275.806 139.76C275.246 140.747 274.966 141.933 274.966 143.32C274.966 144.68 275.246 145.867 275.806 146.88C276.393 147.893 277.153 148.667 278.086 149.2C279.046 149.733 280.126 150 281.326 150ZM287.806 154V148.96L288.006 143.28L287.606 137.6V124.32H292.566V154H287.806Z" fill="#282828"/>
<path d="M812 12C812 5.37258 817.373 0 824 0H1348C1354.63 0 1360 5.37258 1360 12V182C1360 188.627 1354.63 194 1348 194H824C817.373 194 812 188.627 812 182V12Z" fill="#F1F3F4"/>
<path d="M849.32 52L844.64 38H846.7L851 50.92H849.96L854.42 38H856.26L860.62 50.92H859.62L863.98 38H865.88L861.2 52H859.1L855.02 40.02H855.56L851.46 52H849.32ZM871.786 52.12C870.719 52.12 869.772 51.8867 868.946 51.42C868.119 50.9533 867.466 50.3133 866.986 49.5C866.506 48.6733 866.266 47.74 866.266 46.7C866.266 45.6467 866.506 44.7133 866.986 43.9C867.466 43.0867 868.119 42.4533 868.946 42C869.772 41.5333 870.719 41.3 871.786 41.3C872.839 41.3 873.779 41.5333 874.606 42C875.446 42.4533 876.099 43.0867 876.566 43.9C877.046 44.7 877.286 45.6333 877.286 46.7C877.286 47.7533 877.046 48.6867 876.566 49.5C876.099 50.3133 875.446 50.9533 874.606 51.42C873.779 51.8867 872.839 52.12 871.786 52.12ZM871.786 50.44C872.466 50.44 873.072 50.2867 873.606 49.98C874.152 49.6733 874.579 49.24 874.886 48.68C875.192 48.1067 875.346 47.4467 875.346 46.7C875.346 45.94 875.192 45.2867 874.886 44.74C874.579 44.18 874.152 43.7467 873.606 43.44C873.072 43.1333 872.466 42.98 871.786 42.98C871.106 42.98 870.499 43.1333 869.966 43.44C869.432 43.7467 869.006 44.18 868.686 44.74C868.366 45.2867 868.206 45.94 868.206 46.7C868.206 47.4467 868.366 48.1067 868.686 48.68C869.006 49.24 869.432 49.6733 869.966 49.98C870.499 50.2867 871.106 50.44 871.786 50.44ZM879.941 52V41.4H881.781V44.28L881.601 43.56C881.894 42.8267 882.388 42.2667 883.081 41.88C883.774 41.4933 884.628 41.3 885.641 41.3V43.16C885.561 43.1467 885.481 43.14 885.401 43.14C885.334 43.14 885.268 43.14 885.201 43.14C884.174 43.14 883.361 43.4467 882.761 44.06C882.161 44.6733 881.861 45.56 881.861 46.72V52H879.941ZM889.568 49.44L889.608 46.98L895.708 41.4H898.028L893.348 46L892.308 46.88L889.568 49.44ZM888.008 52V37.16H889.928V52H888.008ZM896.108 52L891.948 46.84L893.188 45.3L898.468 52H896.108ZM900.332 52V41.4H902.252V52H900.332ZM901.292 39.36C900.918 39.36 900.605 39.24 900.352 39C900.112 38.76 899.992 38.4667 899.992 38.12C899.992 37.76 900.112 37.46 900.352 37.22C900.605 36.98 900.918 36.86 901.292 36.86C901.665 36.86 901.972 36.98 902.212 37.22C902.465 37.4467 902.592 37.7333 902.592 38.08C902.592 38.44 902.472 38.7467 902.232 39C901.992 39.24 901.678 39.36 901.292 39.36ZM911.578 41.3C912.444 41.3 913.204 41.4667 913.858 41.8C914.524 42.1333 915.044 42.64 915.418 43.32C915.791 44 915.978 44.86 915.978 45.9V52H914.058V46.12C914.058 45.0933 913.804 44.32 913.298 43.8C912.804 43.28 912.104 43.02 911.198 43.02C910.518 43.02 909.924 43.1533 909.418 43.42C908.911 43.6867 908.518 44.08 908.238 44.6C907.971 45.12 907.838 45.7667 907.838 46.54V52H905.918V41.4H907.758V44.26L907.458 43.5C907.804 42.8067 908.338 42.2667 909.058 41.88C909.778 41.4933 910.618 41.3 911.578 41.3ZM924.171 56C923.198 56 922.251 55.86 921.331 55.58C920.424 55.3133 919.684 54.9267 919.111 54.42L920.031 52.94C920.524 53.3667 921.131 53.7 921.851 53.94C922.571 54.1933 923.324 54.32 924.111 54.32C925.364 54.32 926.284 54.0267 926.871 53.44C927.458 52.8533 927.751 51.96 927.751 50.76V48.52L927.951 46.42L927.851 44.3V41.4H929.671V50.56C929.671 52.4267 929.204 53.8 928.271 54.68C927.338 55.56 925.971 56 924.171 56ZM923.931 51.56C922.904 51.56 921.984 51.3467 921.171 50.92C920.371 50.48 919.731 49.8733 919.251 49.1C918.784 48.3267 918.551 47.4333 918.551 46.42C918.551 45.3933 918.784 44.5 919.251 43.74C919.731 42.9667 920.371 42.3667 921.171 41.94C921.984 41.5133 922.904 41.3 923.931 41.3C924.838 41.3 925.664 41.4867 926.411 41.86C927.158 42.22 927.751 42.78 928.191 43.54C928.644 44.3 928.871 45.26 928.871 46.42C928.871 47.5667 928.644 48.52 928.191 49.28C927.751 50.04 927.158 50.6133 926.411 51C925.664 51.3733 924.838 51.56 923.931 51.56ZM924.151 49.88C924.858 49.88 925.484 49.7333 926.031 49.44C926.578 49.1467 927.004 48.74 927.311 48.22C927.631 47.7 927.791 47.1 927.791 46.42C927.791 45.74 927.631 45.14 927.311 44.62C927.004 44.1 926.578 43.7 926.031 43.42C925.484 43.1267 924.858 42.98 924.151 42.98C923.444 42.98 922.811 43.1267 922.251 43.42C921.704 43.7 921.271 44.1 920.951 44.62C920.644 45.14 920.491 45.74 920.491 46.42C920.491 47.1 920.644 47.7 920.951 48.22C921.271 48.74 921.704 49.1467 922.251 49.44C922.811 49.7333 923.444 49.88 924.151 49.88ZM949.031 38H951.031V52H949.031V38ZM940.991 52H938.991V38H940.991V52ZM949.211 45.76H940.791V44.02H949.211V45.76ZM959.481 52.12C958.414 52.12 957.468 51.8867 956.641 51.42C955.814 50.9533 955.161 50.3133 954.681 49.5C954.201 48.6733 953.961 47.74 953.961 46.7C953.961 45.6467 954.201 44.7133 954.681 43.9C955.161 43.0867 955.814 42.4533 956.641 42C957.468 41.5333 958.414 41.3 959.481 41.3C960.534 41.3 961.474 41.5333 962.301 42C963.141 42.4533 963.794 43.0867 964.261 43.9C964.741 44.7 964.981 45.6333 964.981 46.7C964.981 47.7533 964.741 48.6867 964.261 49.5C963.794 50.3133 963.141 50.9533 962.301 51.42C961.474 51.8867 960.534 52.12 959.481 52.12ZM959.481 50.44C960.161 50.44 960.768 50.2867 961.301 49.98C961.848 49.6733 962.274 49.24 962.581 48.68C962.888 48.1067 963.041 47.4467 963.041 46.7C963.041 45.94 962.888 45.2867 962.581 44.74C962.274 44.18 961.848 43.7467 961.301 43.44C960.768 43.1333 960.161 42.98 959.481 42.98C958.801 42.98 958.194 43.1333 957.661 43.44C957.128 43.7467 956.701 44.18 956.381 44.74C956.061 45.2867 955.901 45.94 955.901 46.7C955.901 47.4467 956.061 48.1067 956.381 48.68C956.701 49.24 957.128 49.6733 957.661 49.98C958.194 50.2867 958.801 50.44 959.481 50.44ZM972.096 52.12C971.19 52.12 970.39 51.9533 969.696 51.62C969.016 51.2867 968.483 50.78 968.096 50.1C967.723 49.4067 967.536 48.54 967.536 47.5V41.4H969.456V47.28C969.456 48.32 969.703 49.1 970.196 49.62C970.703 50.14 971.41 50.4 972.316 50.4C972.983 50.4 973.563 50.2667 974.056 50C974.55 49.72 974.93 49.32 975.196 48.8C975.463 48.2667 975.596 47.6267 975.596 46.88V41.4H977.516V52H975.696V49.14L975.996 49.9C975.65 50.6067 975.13 51.1533 974.436 51.54C973.743 51.9267 972.963 52.12 972.096 52.12ZM981.172 52V41.4H983.012V44.28L982.832 43.56C983.125 42.8267 983.618 42.2667 984.312 41.88C985.005 41.4933 985.858 41.3 986.872 41.3V43.16C986.792 43.1467 986.712 43.14 986.632 43.14C986.565 43.14 986.498 43.14 986.432 43.14C985.405 43.14 984.592 43.4467 983.992 44.06C983.392 44.6733 983.092 45.56 983.092 46.72V52H981.172ZM992.395 52.12C991.515 52.12 990.675 52 989.875 51.76C989.088 51.52 988.468 51.2267 988.015 50.88L988.815 49.36C989.268 49.6667 989.828 49.9267 990.495 50.14C991.162 50.3533 991.842 50.46 992.535 50.46C993.428 50.46 994.068 50.3333 994.455 50.08C994.855 49.8267 995.055 49.4733 995.055 49.02C995.055 48.6867 994.935 48.4267 994.695 48.24C994.455 48.0533 994.135 47.9133 993.735 47.82C993.348 47.7267 992.915 47.6467 992.435 47.58C991.955 47.5 991.475 47.4067 990.995 47.3C990.515 47.18 990.075 47.02 989.675 46.82C989.275 46.6067 988.955 46.32 988.715 45.96C988.475 45.5867 988.355 45.0933 988.355 44.48C988.355 43.84 988.535 43.28 988.895 42.8C989.255 42.32 989.762 41.9533 990.415 41.7C991.082 41.4333 991.868 41.3 992.775 41.3C993.468 41.3 994.168 41.3867 994.875 41.56C995.595 41.72 996.182 41.9533 996.635 42.26L995.815 43.78C995.335 43.46 994.835 43.24 994.315 43.12C993.795 43 993.275 42.94 992.755 42.94C991.915 42.94 991.288 43.08 990.875 43.36C990.462 43.6267 990.255 43.9733 990.255 44.4C990.255 44.76 990.375 45.04 990.615 45.24C990.868 45.4267 991.188 45.5733 991.575 45.68C991.975 45.7867 992.415 45.88 992.895 45.96C993.375 46.0267 993.855 46.12 994.335 46.24C994.815 46.3467 995.248 46.5 995.635 46.7C996.035 46.9 996.355 47.18 996.595 47.54C996.848 47.9 996.975 48.38 996.975 48.98C996.975 49.62 996.788 50.1733 996.415 50.64C996.042 51.1067 995.515 51.4733 994.835 51.74C994.155 51.9933 993.342 52.12 992.395 52.12Z" fill="#8B8B8B"/>
<path d="M845.4 110V106.52L856.52 95.96C857.453 95.08 858.147 94.3067 858.6 93.64C859.053 92.9733 859.347 92.36 859.48 91.8C859.64 91.2133 859.72 90.6667 859.72 90.16C859.72 88.88 859.28 87.8933 858.4 87.2C857.52 86.48 856.227 86.12 854.52 86.12C853.16 86.12 851.92 86.36 850.8 86.84C849.707 87.32 848.76 88.0533 847.96 89.04L844.32 86.24C845.413 84.7733 846.88 83.64 848.72 82.84C850.587 82.0133 852.667 81.6 854.96 81.6C856.987 81.6 858.747 81.9333 860.24 82.6C861.76 83.24 862.92 84.16 863.72 85.36C864.547 86.56 864.96 87.9867 864.96 89.64C864.96 90.5467 864.84 91.4533 864.6 92.36C864.36 93.24 863.907 94.1733 863.24 95.16C862.573 96.1467 861.6 97.2533 860.32 98.48L850.76 107.56L849.68 105.6H866.04V110H845.4ZM868.055 103.64V100.04L881.855 82H887.415L873.815 100.04L871.215 99.24H893.415V103.64H868.055ZM883.415 110V103.64L883.575 99.24V93.6H888.455V110H883.415ZM920.298 88.4C922.005 88.4 923.525 88.7333 924.858 89.4C926.218 90.0667 927.285 91.0933 928.058 92.48C928.832 93.84 929.218 95.6 929.218 97.76V110H924.218V98.4C924.218 96.5067 923.765 95.0933 922.858 94.16C921.978 93.2267 920.738 92.76 919.138 92.76C917.965 92.76 916.925 93 916.018 93.48C915.112 93.96 914.405 94.68 913.898 95.64C913.418 96.5733 913.178 97.76 913.178 99.2V110H908.178V80.32H913.178V94.4L912.098 92.64C912.845 91.28 913.925 90.24 915.338 89.52C916.778 88.7733 918.432 88.4 920.298 88.4ZM945.2 110.28C943.014 110.28 941.067 109.813 939.36 108.88C937.654 107.92 936.307 106.613 935.32 104.96C934.334 103.307 933.84 101.427 933.84 99.32C933.84 97.1867 934.334 95.3067 935.32 93.68C936.307 92.0267 937.654 90.7333 939.36 89.8C941.067 88.8667 943.014 88.4 945.2 88.4C947.414 88.4 949.374 88.8667 951.08 89.8C952.814 90.7333 954.16 92.0133 955.12 93.64C956.107 95.2667 956.6 97.16 956.6 99.32C956.6 101.427 956.107 103.307 955.12 104.96C954.16 106.613 952.814 107.92 951.08 108.88C949.374 109.813 947.414 110.28 945.2 110.28ZM945.2 106C946.427 106 947.52 105.733 948.48 105.2C949.44 104.667 950.187 103.893 950.72 102.88C951.28 101.867 951.56 100.68 951.56 99.32C951.56 97.9333 951.28 96.7467 950.72 95.76C950.187 94.7467 949.44 93.9733 948.48 93.44C947.52 92.9067 946.44 92.64 945.24 92.64C944.014 92.64 942.92 92.9067 941.96 93.44C941.027 93.9733 940.28 94.7467 939.72 95.76C939.16 96.7467 938.88 97.9333 938.88 99.32C938.88 100.68 939.16 101.867 939.72 102.88C940.28 103.893 941.027 104.667 941.96 105.2C942.92 105.733 944 106 945.2 106ZM970.422 110.28C968.608 110.28 967.008 109.947 965.622 109.28C964.235 108.587 963.155 107.547 962.382 106.16C961.608 104.747 961.222 102.973 961.222 100.84V88.64H966.222V100.16C966.222 102.08 966.648 103.52 967.502 104.48C968.382 105.413 969.622 105.88 971.222 105.88C972.395 105.88 973.408 105.64 974.262 105.16C975.142 104.68 975.822 103.96 976.302 103C976.808 102.04 977.062 100.853 977.062 99.44V88.64H982.062V110H977.302V104.24L978.142 106C977.422 107.387 976.368 108.453 974.982 109.2C973.595 109.92 972.075 110.28 970.422 110.28ZM988.608 110V88.64H993.368V94.52L992.808 92.8C993.448 91.36 994.448 90.2667 995.808 89.52C997.195 88.7733 998.915 88.4 1000.97 88.4V93.16C1000.75 93.1067 1000.55 93.08 1000.37 93.08C1000.18 93.0533 999.995 93.04 999.808 93.04C997.915 93.04 996.408 93.6 995.288 94.72C994.168 95.8133 993.608 97.4533 993.608 99.64V110H988.608ZM1012.01 110.28C1010.22 110.28 1008.5 110.053 1006.85 109.6C1005.22 109.12 1003.93 108.547 1002.97 107.88L1004.89 104.08C1005.85 104.693 1006.99 105.2 1008.33 105.6C1009.66 106 1010.99 106.2 1012.33 106.2C1013.9 106.2 1015.03 105.987 1015.73 105.56C1016.45 105.133 1016.81 104.56 1016.81 103.84C1016.81 103.253 1016.57 102.813 1016.09 102.52C1015.61 102.2 1014.98 101.96 1014.21 101.8C1013.43 101.64 1012.57 101.493 1011.61 101.36C1010.67 101.227 1009.73 101.053 1008.77 100.84C1007.83 100.6 1006.98 100.267 1006.21 99.84C1005.43 99.3867 1004.81 98.7867 1004.33 98.04C1003.85 97.2933 1003.61 96.3067 1003.61 95.08C1003.61 93.72 1003.99 92.5467 1004.76 91.56C1005.54 90.5467 1006.62 89.7733 1008 89.24C1009.42 88.68 1011.09 88.4 1013.01 88.4C1014.45 88.4 1015.9 88.56 1017.37 88.88C1018.83 89.2 1020.05 89.6533 1021.01 90.24L1019.09 94.04C1018.07 93.4267 1017.05 93.0133 1016.01 92.8C1014.99 92.56 1013.98 92.44 1012.97 92.44C1011.45 92.44 1010.31 92.6667 1009.57 93.12C1008.85 93.5733 1008.49 94.1467 1008.49 94.84C1008.49 95.48 1008.73 95.96 1009.21 96.28C1009.69 96.6 1010.31 96.8533 1011.09 97.04C1011.86 97.2267 1012.71 97.3867 1013.65 97.52C1014.61 97.6267 1015.55 97.8 1016.49 98.04C1017.42 98.28 1018.27 98.6133 1019.05 99.04C1019.85 99.44 1020.49 100.013 1020.97 100.76C1021.45 101.507 1021.69 102.48 1021.69 103.68C1021.69 105.013 1021.29 106.173 1020.49 107.16C1019.71 108.147 1018.61 108.92 1017.17 109.48C1015.73 110.013 1014.01 110.28 1012.01 110.28ZM1050.21 110V105.68L1049.93 104.76V97.2C1049.93 95.7333 1049.49 94.6 1048.61 93.8C1047.73 92.9733 1046.39 92.56 1044.61 92.56C1043.41 92.56 1042.22 92.7467 1041.05 93.12C1039.9 93.4933 1038.93 94.0133 1038.13 94.68L1036.17 91.04C1037.31 90.16 1038.67 89.5067 1040.25 89.08C1041.85 88.6267 1043.5 88.4 1045.21 88.4C1048.3 88.4 1050.69 89.1467 1052.37 90.64C1054.07 92.1067 1054.93 94.3867 1054.93 97.48V110H1050.21ZM1043.49 110.28C1041.89 110.28 1040.49 110.013 1039.29 109.48C1038.09 108.92 1037.15 108.16 1036.49 107.2C1035.85 106.213 1035.53 105.107 1035.53 103.88C1035.53 102.68 1035.81 101.6 1036.37 100.64C1036.95 99.68 1037.9 98.92 1039.21 98.36C1040.51 97.8 1042.25 97.52 1044.41 97.52H1050.61V100.84H1044.77C1043.06 100.84 1041.91 101.12 1041.33 101.68C1040.74 102.213 1040.45 102.88 1040.45 103.68C1040.45 104.587 1040.81 105.307 1041.53 105.84C1042.25 106.373 1043.25 106.64 1044.53 106.64C1045.75 106.64 1046.85 106.36 1047.81 105.8C1048.79 105.24 1049.5 104.413 1049.93 103.32L1050.77 106.32C1050.29 107.573 1049.42 108.547 1048.17 109.24C1046.94 109.933 1045.38 110.28 1043.49 110.28ZM1081.44 110.28C1079.38 110.28 1077.53 109.827 1075.88 108.92C1074.25 107.987 1072.97 106.707 1072.04 105.08C1071.1 103.453 1070.64 101.533 1070.64 99.32C1070.64 97.1067 1071.1 95.1867 1072.04 93.56C1072.97 91.9333 1074.25 90.6667 1075.88 89.76C1077.53 88.8533 1079.38 88.4 1081.44 88.4C1083.22 88.4 1084.82 88.8 1086.24 89.6C1087.65 90.3733 1088.77 91.56 1089.6 93.16C1090.42 94.76 1090.84 96.8133 1090.84 99.32C1090.84 101.8 1090.44 103.853 1089.64 105.48C1088.84 107.08 1087.73 108.28 1086.32 109.08C1084.9 109.88 1083.28 110.28 1081.44 110.28ZM1082.04 106C1083.24 106 1084.3 105.733 1085.24 105.2C1086.2 104.667 1086.96 103.893 1087.52 102.88C1088.1 101.867 1088.4 100.68 1088.4 99.32C1088.4 97.9333 1088.1 96.7467 1087.52 95.76C1086.96 94.7467 1086.2 93.9733 1085.24 93.44C1084.3 92.9067 1083.24 92.64 1082.04 92.64C1080.84 92.64 1079.76 92.9067 1078.8 93.44C1077.86 93.9733 1077.1 94.7467 1076.52 95.76C1075.96 96.7467 1075.68 97.9333 1075.68 99.32C1075.68 100.68 1075.96 101.867 1076.52 102.88C1077.1 103.893 1077.86 104.667 1078.8 105.2C1079.76 105.733 1080.84 106 1082.04 106ZM1088.52 110V104.96L1088.72 99.28L1088.32 93.6V80.32H1093.28V110H1088.52ZM1113.02 110V105.68L1112.74 104.76V97.2C1112.74 95.7333 1112.3 94.6 1111.42 93.8C1110.54 92.9733 1109.2 92.56 1107.42 92.56C1106.22 92.56 1105.03 92.7467 1103.86 93.12C1102.71 93.4933 1101.74 94.0133 1100.94 94.68L1098.98 91.04C1100.12 90.16 1101.48 89.5067 1103.06 89.08C1104.66 88.6267 1106.31 88.4 1108.02 88.4C1111.11 88.4 1113.5 89.1467 1115.18 90.64C1116.88 92.1067 1117.74 94.3867 1117.74 97.48V110H1113.02ZM1106.3 110.28C1104.7 110.28 1103.3 110.013 1102.1 109.48C1100.9 108.92 1099.96 108.16 1099.3 107.2C1098.66 106.213 1098.34 105.107 1098.34 103.88C1098.34 102.68 1098.62 101.6 1099.18 100.64C1099.76 99.68 1100.71 98.92 1102.02 98.36C1103.32 97.8 1105.06 97.52 1107.22 97.52H1113.42V100.84H1107.58C1105.87 100.84 1104.72 101.12 1104.14 101.68C1103.55 102.213 1103.26 102.88 1103.26 103.68C1103.26 104.587 1103.62 105.307 1104.34 105.84C1105.06 106.373 1106.06 106.64 1107.34 106.64C1108.56 106.64 1109.66 106.36 1110.62 105.8C1111.6 105.24 1112.31 104.413 1112.74 103.32L1113.58 106.32C1113.1 107.573 1112.23 108.547 1110.98 109.24C1109.75 109.933 1108.19 110.28 1106.3 110.28ZM1125.52 118.04C1124.48 118.04 1123.44 117.867 1122.4 117.52C1121.36 117.173 1120.5 116.693 1119.8 116.08L1121.8 112.4C1122.31 112.853 1122.88 113.213 1123.52 113.48C1124.16 113.747 1124.82 113.88 1125.48 113.88C1126.39 113.88 1127.12 113.653 1127.68 113.2C1128.24 112.747 1128.76 111.987 1129.24 110.92L1130.48 108.12L1130.88 107.52L1138.96 88.64H1143.76L1133.76 111.72C1133.1 113.32 1132.35 114.587 1131.52 115.52C1130.72 116.453 1129.82 117.107 1128.8 117.48C1127.82 117.853 1126.72 118.04 1125.52 118.04ZM1129.92 110.76L1120.28 88.64H1125.48L1133.32 107.08L1129.92 110.76Z" fill="#282828"/>
</svg>
