<svg width="974" height="46" viewBox="0 0 974 46" fill="none" xmlns="http://www.w3.org/2000/svg">
<line y1="27.5" x2="832" y2="27.5" stroke="#DDDDDD"/>
<path d="M832.5 16C832.5 12.9624 834.962 10.5 838 10.5H968C971.038 10.5 973.5 12.9624 973.5 16V40C973.5 43.0376 971.038 45.5 968 45.5H838C834.962 45.5 832.5 43.0376 832.5 40V16Z" stroke="#DDDDDD"/>
<path d="M848.117 34L853.189 22.8H854.773L859.861 34H858.181L853.653 23.696H854.293L849.765 34H848.117ZM850.277 31.2L850.709 29.92H857.013L857.477 31.2H850.277ZM861.308 34V22.128H862.844V34H861.308ZM865.776 34V22.128H867.312V34H865.776ZM878.238 34.096C877.374 34.096 876.601 33.9093 875.918 33.536C875.246 33.1627 874.718 32.6507 874.334 32C873.95 31.3493 873.758 30.6027 873.758 29.76C873.758 28.9173 873.95 28.1707 874.334 27.52C874.718 26.8693 875.246 26.3627 875.918 26C876.601 25.6267 877.374 25.44 878.238 25.44C879.006 25.44 879.689 25.5947 880.286 25.904C880.894 26.2027 881.363 26.6507 881.694 27.248L880.526 28C880.249 27.584 879.907 27.28 879.502 27.088C879.107 26.8853 878.681 26.784 878.222 26.784C877.667 26.784 877.171 26.9067 876.734 27.152C876.297 27.3973 875.95 27.744 875.694 28.192C875.438 28.6293 875.31 29.152 875.31 29.76C875.31 30.368 875.438 30.896 875.694 31.344C875.95 31.792 876.297 32.1387 876.734 32.384C877.171 32.6293 877.667 32.752 878.222 32.752C878.681 32.752 879.107 32.656 879.502 32.464C879.907 32.2613 880.249 31.952 880.526 31.536L881.694 32.272C881.363 32.8587 880.894 33.312 880.286 33.632C879.689 33.9413 879.006 34.096 878.238 34.096ZM888.947 34V32.208L888.867 31.872V28.816C888.867 28.1653 888.675 27.664 888.291 27.312C887.917 26.9493 887.352 26.768 886.595 26.768C886.093 26.768 885.603 26.8533 885.123 27.024C884.643 27.184 884.237 27.4027 883.907 27.68L883.267 26.528C883.704 26.176 884.227 25.9093 884.835 25.728C885.453 25.536 886.099 25.44 886.771 25.44C887.933 25.44 888.829 25.7227 889.459 26.288C890.088 26.8533 890.403 27.7173 890.403 28.88V34H888.947ZM886.163 34.096C885.533 34.096 884.979 33.9893 884.499 33.776C884.029 33.5627 883.667 33.2693 883.411 32.896C883.155 32.512 883.027 32.08 883.027 31.6C883.027 31.1413 883.133 30.7253 883.347 30.352C883.571 29.9787 883.928 29.68 884.419 29.456C884.92 29.232 885.592 29.12 886.435 29.12H889.123V30.224H886.499C885.731 30.224 885.213 30.352 884.947 30.608C884.68 30.864 884.547 31.1733 884.547 31.536C884.547 31.952 884.712 32.288 885.043 32.544C885.373 32.7893 885.832 32.912 886.419 32.912C886.995 32.912 887.496 32.784 887.923 32.528C888.36 32.272 888.675 31.8987 888.867 31.408L889.171 32.464C888.968 32.9653 888.611 33.3653 888.099 33.664C887.587 33.952 886.941 34.096 886.163 34.096ZM896.157 34.096C895.304 34.096 894.642 33.8667 894.173 33.408C893.704 32.9493 893.469 32.2933 893.469 31.44V23.664H895.005V31.376C895.005 31.8347 895.117 32.1867 895.341 32.432C895.576 32.6773 895.906 32.8 896.333 32.8C896.813 32.8 897.213 32.6667 897.533 32.4L898.013 33.504C897.778 33.7067 897.496 33.856 897.165 33.952C896.845 34.048 896.509 34.096 896.157 34.096ZM892.029 26.784V25.52H897.437V26.784H892.029ZM903.365 34.096C902.458 34.096 901.658 33.9093 900.965 33.536C900.282 33.1627 899.749 32.6507 899.365 32C898.991 31.3493 898.805 30.6027 898.805 29.76C898.805 28.9173 898.986 28.1707 899.349 27.52C899.722 26.8693 900.229 26.3627 900.869 26C901.519 25.6267 902.25 25.44 903.061 25.44C903.882 25.44 904.607 25.6213 905.237 25.984C905.866 26.3467 906.357 26.8587 906.709 27.52C907.071 28.1707 907.253 28.9333 907.253 29.808C907.253 29.872 907.247 29.9467 907.237 30.032C907.237 30.1173 907.231 30.1973 907.221 30.272H900.005V29.168H906.421L905.797 29.552C905.807 29.008 905.695 28.5227 905.461 28.096C905.226 27.6693 904.901 27.3387 904.485 27.104C904.079 26.8587 903.605 26.736 903.061 26.736C902.527 26.736 902.053 26.8587 901.637 27.104C901.221 27.3387 900.895 27.6747 900.661 28.112C900.426 28.5387 900.309 29.0293 900.309 29.584V29.84C900.309 30.4053 900.437 30.912 900.693 31.36C900.959 31.7973 901.327 32.1387 901.797 32.384C902.266 32.6293 902.805 32.752 903.413 32.752C903.914 32.752 904.367 32.6667 904.773 32.496C905.189 32.3253 905.551 32.0693 905.861 31.728L906.709 32.72C906.325 33.168 905.845 33.5093 905.269 33.744C904.703 33.9787 904.069 34.096 903.365 34.096ZM913.098 37.2C912.319 37.2 911.562 37.088 910.826 36.864C910.1 36.6507 909.508 36.3413 909.05 35.936L909.786 34.752C910.18 35.0933 910.666 35.36 911.242 35.552C911.818 35.7547 912.42 35.856 913.05 35.856C914.052 35.856 914.788 35.6213 915.258 35.152C915.727 34.6827 915.962 33.968 915.962 33.008V31.216L916.122 29.536L916.042 27.84V25.52H917.498V32.848C917.498 34.3413 917.124 35.44 916.378 36.144C915.631 36.848 914.538 37.2 913.098 37.2ZM912.906 33.648C912.084 33.648 911.348 33.4773 910.698 33.136C910.058 32.784 909.546 32.2987 909.162 31.68C908.788 31.0613 908.602 30.3467 908.602 29.536C908.602 28.7147 908.788 28 909.162 27.392C909.546 26.7733 910.058 26.2933 910.698 25.952C911.348 25.6107 912.084 25.44 912.906 25.44C913.631 25.44 914.292 25.5893 914.89 25.888C915.487 26.176 915.962 26.624 916.314 27.232C916.676 27.84 916.858 28.608 916.858 29.536C916.858 30.4533 916.676 31.216 916.314 31.824C915.962 32.432 915.487 32.8907 914.89 33.2C914.292 33.4987 913.631 33.648 912.906 33.648ZM913.082 32.304C913.647 32.304 914.148 32.1867 914.586 31.952C915.023 31.7173 915.364 31.392 915.61 30.976C915.866 30.56 915.994 30.08 915.994 29.536C915.994 28.992 915.866 28.512 915.61 28.096C915.364 27.68 915.023 27.36 914.586 27.136C914.148 26.9013 913.647 26.784 913.082 26.784C912.516 26.784 912.01 26.9013 911.562 27.136C911.124 27.36 910.778 27.68 910.522 28.096C910.276 28.512 910.154 28.992 910.154 29.536C910.154 30.08 910.276 30.56 910.522 30.976C910.778 31.392 911.124 31.7173 911.562 31.952C912.01 32.1867 912.516 32.304 913.082 32.304ZM924.065 34.096C923.211 34.096 922.454 33.9093 921.793 33.536C921.131 33.1627 920.609 32.6507 920.225 32C919.841 31.3387 919.649 30.592 919.649 29.76C919.649 28.9173 919.841 28.1707 920.225 27.52C920.609 26.8693 921.131 26.3627 921.793 26C922.454 25.6267 923.211 25.44 924.065 25.44C924.907 25.44 925.659 25.6267 926.321 26C926.993 26.3627 927.515 26.8693 927.889 27.52C928.273 28.16 928.465 28.9067 928.465 29.76C928.465 30.6027 928.273 31.3493 927.889 32C927.515 32.6507 926.993 33.1627 926.321 33.536C925.659 33.9093 924.907 34.096 924.065 34.096ZM924.065 32.752C924.609 32.752 925.094 32.6293 925.521 32.384C925.958 32.1387 926.299 31.792 926.545 31.344C926.79 30.8853 926.913 30.3573 926.913 29.76C926.913 29.152 926.79 28.6293 926.545 28.192C926.299 27.744 925.958 27.3973 925.521 27.152C925.094 26.9067 924.609 26.784 924.065 26.784C923.521 26.784 923.035 26.9067 922.609 27.152C922.182 27.3973 921.841 27.744 921.585 28.192C921.329 28.6293 921.201 29.152 921.201 29.76C921.201 30.3573 921.329 30.8853 921.585 31.344C921.841 31.792 922.182 32.1387 922.609 32.384C923.035 32.6293 923.521 32.752 924.065 32.752ZM930.589 34V25.52H932.061V27.824L931.917 27.248C932.151 26.6613 932.546 26.2133 933.101 25.904C933.655 25.5947 934.338 25.44 935.149 25.44V26.928C935.085 26.9173 935.021 26.912 934.957 26.912C934.903 26.912 934.85 26.912 934.797 26.912C933.975 26.912 933.325 27.1573 932.845 27.648C932.365 28.1387 932.125 28.848 932.125 29.776V34H930.589ZM937.042 34V25.52H938.578V34H937.042ZM937.81 23.888C937.511 23.888 937.261 23.792 937.058 23.6C936.866 23.408 936.77 23.1733 936.77 22.896C936.77 22.608 936.866 22.368 937.058 22.176C937.261 21.984 937.511 21.888 937.81 21.888C938.109 21.888 938.354 21.984 938.546 22.176C938.749 22.3573 938.85 22.5867 938.85 22.864C938.85 23.152 938.754 23.3973 938.562 23.6C938.37 23.792 938.119 23.888 937.81 23.888ZM945.287 34.096C944.38 34.096 943.58 33.9093 942.887 33.536C942.204 33.1627 941.671 32.6507 941.287 32C940.913 31.3493 940.727 30.6027 940.727 29.76C940.727 28.9173 940.908 28.1707 941.271 27.52C941.644 26.8693 942.151 26.3627 942.791 26C943.441 25.6267 944.172 25.44 944.983 25.44C945.804 25.44 946.529 25.6213 947.159 25.984C947.788 26.3467 948.279 26.8587 948.631 27.52C948.993 28.1707 949.175 28.9333 949.175 29.808C949.175 29.872 949.169 29.9467 949.159 30.032C949.159 30.1173 949.153 30.1973 949.143 30.272H941.927V29.168H948.343L947.719 29.552C947.729 29.008 947.617 28.5227 947.383 28.096C947.148 27.6693 946.823 27.3387 946.407 27.104C946.001 26.8587 945.527 26.736 944.983 26.736C944.449 26.736 943.975 26.8587 943.559 27.104C943.143 27.3387 942.817 27.6747 942.583 28.112C942.348 28.5387 942.231 29.0293 942.231 29.584V29.84C942.231 30.4053 942.359 30.912 942.615 31.36C942.881 31.7973 943.249 32.1387 943.719 32.384C944.188 32.6293 944.727 32.752 945.335 32.752C945.836 32.752 946.289 32.6667 946.695 32.496C947.111 32.3253 947.473 32.0693 947.783 31.728L948.631 32.72C948.247 33.168 947.767 33.5093 947.191 33.744C946.625 33.9787 945.991 34.096 945.287 34.096ZM953.74 34.096C953.036 34.096 952.364 34 951.724 33.808C951.094 33.616 950.598 33.3813 950.236 33.104L950.876 31.888C951.238 32.1333 951.686 32.3413 952.22 32.512C952.753 32.6827 953.297 32.768 953.852 32.768C954.566 32.768 955.078 32.6667 955.388 32.464C955.708 32.2613 955.868 31.9787 955.868 31.616C955.868 31.3493 955.772 31.1413 955.58 30.992C955.388 30.8427 955.132 30.7307 954.812 30.656C954.502 30.5813 954.156 30.5173 953.772 30.464C953.388 30.4 953.004 30.3253 952.62 30.24C952.236 30.144 951.884 30.016 951.564 29.856C951.244 29.6853 950.988 29.456 950.796 29.168C950.604 28.8693 950.508 28.4747 950.508 27.984C950.508 27.472 950.652 27.024 950.94 26.64C951.228 26.256 951.633 25.9627 952.156 25.76C952.689 25.5467 953.318 25.44 954.044 25.44C954.598 25.44 955.158 25.5093 955.724 25.648C956.3 25.776 956.769 25.9627 957.132 26.208L956.476 27.424C956.092 27.168 955.692 26.992 955.276 26.896C954.86 26.8 954.444 26.752 954.028 26.752C953.356 26.752 952.854 26.864 952.524 27.088C952.193 27.3013 952.028 27.5787 952.028 27.92C952.028 28.208 952.124 28.432 952.316 28.592C952.518 28.7413 952.774 28.8587 953.084 28.944C953.404 29.0293 953.756 29.104 954.14 29.168C954.524 29.2213 954.908 29.296 955.292 29.392C955.676 29.4773 956.022 29.6 956.332 29.76C956.652 29.92 956.908 30.144 957.1 30.432C957.302 30.72 957.404 31.104 957.404 31.584C957.404 32.096 957.254 32.5387 956.956 32.912C956.657 33.2853 956.236 33.5787 955.692 33.792C955.148 33.9947 954.497 34.096 953.74 34.096Z" fill="#8B8B8B"/>
</svg>
