<svg width="852" height="46" viewBox="0 0 852 46" fill="none" xmlns="http://www.w3.org/2000/svg">
<line y1="27.5" x2="682" y2="27.5" stroke="#DDDDDD"/>
<path d="M688 10.5H846C849.038 10.5 851.5 12.9624 851.5 16V40C851.5 43.0376 849.038 45.5 846 45.5H688C684.962 45.5 682.5 43.0376 682.5 40V16C682.5 12.9624 684.962 10.5 688 10.5Z" stroke="#DDDDDD"/>
<path d="M699.703 34V22.8H704.727C706.018 22.8 707.01 23.0613 707.703 23.584C708.397 24.096 708.743 24.8 708.743 25.696C708.743 26.304 708.605 26.816 708.327 27.232C708.061 27.648 707.698 27.968 707.239 28.192C706.781 28.416 706.285 28.528 705.751 28.528L706.039 28.048C706.679 28.048 707.245 28.16 707.735 28.384C708.226 28.608 708.615 28.9387 708.903 29.376C709.191 29.8027 709.335 30.336 709.335 30.976C709.335 31.936 708.973 32.6827 708.247 33.216C707.533 33.7387 706.466 34 705.047 34H699.703ZM701.303 32.704H704.983C705.869 32.704 706.546 32.5547 707.015 32.256C707.485 31.9573 707.719 31.488 707.719 30.848C707.719 30.1973 707.485 29.7227 707.015 29.424C706.546 29.1253 705.869 28.976 704.983 28.976H701.159V27.68H704.583C705.394 27.68 706.023 27.5307 706.471 27.232C706.919 26.9333 707.143 26.4853 707.143 25.888C707.143 25.2907 706.919 24.8427 706.471 24.544C706.023 24.2453 705.394 24.096 704.583 24.096H701.303V32.704ZM716.853 34V32.208L716.773 31.872V28.816C716.773 28.1653 716.581 27.664 716.197 27.312C715.823 26.9493 715.258 26.768 714.501 26.768C713.999 26.768 713.509 26.8533 713.029 27.024C712.549 27.184 712.143 27.4027 711.813 27.68L711.173 26.528C711.61 26.176 712.133 25.9093 712.741 25.728C713.359 25.536 714.005 25.44 714.677 25.44C715.839 25.44 716.735 25.7227 717.365 26.288C717.994 26.8533 718.309 27.7173 718.309 28.88V34H716.853ZM714.069 34.096C713.439 34.096 712.885 33.9893 712.405 33.776C711.935 33.5627 711.573 33.2693 711.317 32.896C711.061 32.512 710.933 32.08 710.933 31.6C710.933 31.1413 711.039 30.7253 711.253 30.352C711.477 29.9787 711.834 29.68 712.325 29.456C712.826 29.232 713.498 29.12 714.341 29.12H717.029V30.224H714.405C713.637 30.224 713.119 30.352 712.853 30.608C712.586 30.864 712.453 31.1733 712.453 31.536C712.453 31.952 712.618 32.288 712.949 32.544C713.279 32.7893 713.738 32.912 714.325 32.912C714.901 32.912 715.402 32.784 715.829 32.528C716.266 32.272 716.581 31.8987 716.773 31.408L717.077 32.464C716.874 32.9653 716.517 33.3653 716.005 33.664C715.493 33.952 714.847 34.096 714.069 34.096ZM724.847 34.096C723.983 34.096 723.21 33.9093 722.527 33.536C721.855 33.1627 721.327 32.6507 720.943 32C720.559 31.3493 720.367 30.6027 720.367 29.76C720.367 28.9173 720.559 28.1707 720.943 27.52C721.327 26.8693 721.855 26.3627 722.527 26C723.21 25.6267 723.983 25.44 724.847 25.44C725.615 25.44 726.298 25.5947 726.895 25.904C727.503 26.2027 727.973 26.6507 728.303 27.248L727.135 28C726.858 27.584 726.517 27.28 726.111 27.088C725.717 26.8853 725.29 26.784 724.831 26.784C724.277 26.784 723.781 26.9067 723.343 27.152C722.906 27.3973 722.559 27.744 722.303 28.192C722.047 28.6293 721.919 29.152 721.919 29.76C721.919 30.368 722.047 30.896 722.303 31.344C722.559 31.792 722.906 32.1387 723.343 32.384C723.781 32.6293 724.277 32.752 724.831 32.752C725.29 32.752 725.717 32.656 726.111 32.464C726.517 32.2613 726.858 31.952 727.135 31.536L728.303 32.272C727.973 32.8587 727.503 33.312 726.895 33.632C726.298 33.9413 725.615 34.096 724.847 34.096ZM731.431 31.952L731.463 29.984L736.343 25.52H738.199L734.455 29.2L733.623 29.904L731.431 31.952ZM730.183 34V22.128H731.719V34H730.183ZM736.663 34L733.335 29.872L734.327 28.64L738.551 34H736.663ZM747.251 34.096C746.397 34.096 745.736 33.8667 745.267 33.408C744.797 32.9493 744.563 32.2933 744.563 31.44V23.664H746.099V31.376C746.099 31.8347 746.211 32.1867 746.435 32.432C746.669 32.6773 747 32.8 747.427 32.8C747.907 32.8 748.307 32.6667 748.627 32.4L749.107 33.504C748.872 33.7067 748.589 33.856 748.259 33.952C747.939 34.048 747.603 34.096 747.251 34.096ZM743.123 26.784V25.52H748.531V26.784H743.123ZM754.315 34.096C753.461 34.096 752.704 33.9093 752.043 33.536C751.381 33.1627 750.859 32.6507 750.475 32C750.091 31.3387 749.899 30.592 749.899 29.76C749.899 28.9173 750.091 28.1707 750.475 27.52C750.859 26.8693 751.381 26.3627 752.043 26C752.704 25.6267 753.461 25.44 754.315 25.44C755.157 25.44 755.909 25.6267 756.571 26C757.243 26.3627 757.765 26.8693 758.139 27.52C758.523 28.16 758.715 28.9067 758.715 29.76C758.715 30.6027 758.523 31.3493 758.139 32C757.765 32.6507 757.243 33.1627 756.571 33.536C755.909 33.9093 755.157 34.096 754.315 34.096ZM754.315 32.752C754.859 32.752 755.344 32.6293 755.771 32.384C756.208 32.1387 756.549 31.792 756.795 31.344C757.04 30.8853 757.163 30.3573 757.163 29.76C757.163 29.152 757.04 28.6293 756.795 28.192C756.549 27.744 756.208 27.3973 755.771 27.152C755.344 26.9067 754.859 26.784 754.315 26.784C753.771 26.784 753.285 26.9067 752.859 27.152C752.432 27.3973 752.091 27.744 751.835 28.192C751.579 28.6293 751.451 29.152 751.451 29.76C751.451 30.3573 751.579 30.8853 751.835 31.344C752.091 31.792 752.432 32.1387 752.859 32.384C753.285 32.6293 753.771 32.752 754.315 32.752ZM768.048 34.096C767.194 34.096 766.533 33.8667 766.064 33.408C765.594 32.9493 765.36 32.2933 765.36 31.44V23.664H766.896V31.376C766.896 31.8347 767.008 32.1867 767.232 32.432C767.466 32.6773 767.797 32.8 768.224 32.8C768.704 32.8 769.104 32.6667 769.424 32.4L769.904 33.504C769.669 33.7067 769.386 33.856 769.056 33.952C768.736 34.048 768.4 34.096 768.048 34.096ZM763.92 26.784V25.52H769.328V26.784H763.92ZM776.289 25.44C776.982 25.44 777.59 25.5733 778.113 25.84C778.646 26.1067 779.062 26.512 779.361 27.056C779.659 27.6 779.809 28.288 779.809 29.12V34H778.273V29.296C778.273 28.4747 778.07 27.856 777.665 27.44C777.27 27.024 776.71 26.816 775.985 26.816C775.441 26.816 774.966 26.9227 774.561 27.136C774.155 27.3493 773.841 27.664 773.617 28.08C773.403 28.496 773.297 29.0133 773.297 29.632V34H771.761V22.128H773.297V27.808L772.993 27.2C773.27 26.6453 773.697 26.2133 774.273 25.904C774.849 25.5947 775.521 25.44 776.289 25.44ZM786.427 34.096C785.521 34.096 784.721 33.9093 784.027 33.536C783.345 33.1627 782.811 32.6507 782.427 32C782.054 31.3493 781.867 30.6027 781.867 29.76C781.867 28.9173 782.049 28.1707 782.411 27.52C782.785 26.8693 783.291 26.3627 783.931 26C784.582 25.6267 785.313 25.44 786.123 25.44C786.945 25.44 787.67 25.6213 788.299 25.984C788.929 26.3467 789.419 26.8587 789.771 27.52C790.134 28.1707 790.315 28.9333 790.315 29.808C790.315 29.872 790.31 29.9467 790.299 30.032C790.299 30.1173 790.294 30.1973 790.283 30.272H783.067V29.168H789.483L788.859 29.552C788.87 29.008 788.758 28.5227 788.523 28.096C788.289 27.6693 787.963 27.3387 787.547 27.104C787.142 26.8587 786.667 26.736 786.123 26.736C785.59 26.736 785.115 26.8587 784.699 27.104C784.283 27.3387 783.958 27.6747 783.723 28.112C783.489 28.5387 783.371 29.0293 783.371 29.584V29.84C783.371 30.4053 783.499 30.912 783.755 31.36C784.022 31.7973 784.39 32.1387 784.859 32.384C785.329 32.6293 785.867 32.752 786.475 32.752C786.977 32.752 787.43 32.6667 787.835 32.496C788.251 32.3253 788.614 32.0693 788.923 31.728L789.771 32.72C789.387 33.168 788.907 33.5093 788.331 33.744C787.766 33.9787 787.131 34.096 786.427 34.096ZM799.177 34.096C798.473 34.096 797.801 34 797.161 33.808C796.532 33.616 796.036 33.3813 795.673 33.104L796.313 31.888C796.676 32.1333 797.124 32.3413 797.657 32.512C798.19 32.6827 798.734 32.768 799.289 32.768C800.004 32.768 800.516 32.6667 800.825 32.464C801.145 32.2613 801.305 31.9787 801.305 31.616C801.305 31.3493 801.209 31.1413 801.017 30.992C800.825 30.8427 800.569 30.7307 800.249 30.656C799.94 30.5813 799.593 30.5173 799.209 30.464C798.825 30.4 798.441 30.3253 798.057 30.24C797.673 30.144 797.321 30.016 797.001 29.856C796.681 29.6853 796.425 29.456 796.233 29.168C796.041 28.8693 795.945 28.4747 795.945 27.984C795.945 27.472 796.089 27.024 796.377 26.64C796.665 26.256 797.07 25.9627 797.593 25.76C798.126 25.5467 798.756 25.44 799.481 25.44C800.036 25.44 800.596 25.5093 801.161 25.648C801.737 25.776 802.206 25.9627 802.569 26.208L801.913 27.424C801.529 27.168 801.129 26.992 800.713 26.896C800.297 26.8 799.881 26.752 799.465 26.752C798.793 26.752 798.292 26.864 797.961 27.088C797.63 27.3013 797.465 27.5787 797.465 27.92C797.465 28.208 797.561 28.432 797.753 28.592C797.956 28.7413 798.212 28.8587 798.521 28.944C798.841 29.0293 799.193 29.104 799.577 29.168C799.961 29.2213 800.345 29.296 800.729 29.392C801.113 29.4773 801.46 29.6 801.769 29.76C802.089 29.92 802.345 30.144 802.537 30.432C802.74 30.72 802.841 31.104 802.841 31.584C802.841 32.096 802.692 32.5387 802.393 32.912C802.094 33.2853 801.673 33.5787 801.129 33.792C800.585 33.9947 799.934 34.096 799.177 34.096ZM807.673 34.096C806.819 34.096 806.158 33.8667 805.689 33.408C805.219 32.9493 804.985 32.2933 804.985 31.44V23.664H806.521V31.376C806.521 31.8347 806.633 32.1867 806.857 32.432C807.091 32.6773 807.422 32.8 807.849 32.8C808.329 32.8 808.729 32.6667 809.049 32.4L809.529 33.504C809.294 33.7067 809.011 33.856 808.681 33.952C808.361 34.048 808.025 34.096 807.673 34.096ZM803.545 26.784V25.52H808.953V26.784H803.545ZM814.736 34.096C813.883 34.096 813.126 33.9093 812.464 33.536C811.803 33.1627 811.28 32.6507 810.896 32C810.512 31.3387 810.32 30.592 810.32 29.76C810.32 28.9173 810.512 28.1707 810.896 27.52C811.28 26.8693 811.803 26.3627 812.464 26C813.126 25.6267 813.883 25.44 814.736 25.44C815.579 25.44 816.331 25.6267 816.992 26C817.664 26.3627 818.187 26.8693 818.56 27.52C818.944 28.16 819.136 28.9067 819.136 29.76C819.136 30.6027 818.944 31.3493 818.56 32C818.187 32.6507 817.664 33.1627 816.992 33.536C816.331 33.9093 815.579 34.096 814.736 34.096ZM814.736 32.752C815.28 32.752 815.766 32.6293 816.192 32.384C816.63 32.1387 816.971 31.792 817.216 31.344C817.462 30.8853 817.584 30.3573 817.584 29.76C817.584 29.152 817.462 28.6293 817.216 28.192C816.971 27.744 816.63 27.3973 816.192 27.152C815.766 26.9067 815.28 26.784 814.736 26.784C814.192 26.784 813.707 26.9067 813.28 27.152C812.854 27.3973 812.512 27.744 812.256 28.192C812 28.6293 811.872 29.152 811.872 29.76C811.872 30.3573 812 30.8853 812.256 31.344C812.512 31.792 812.854 32.1387 813.28 32.384C813.707 32.6293 814.192 32.752 814.736 32.752ZM821.261 34V25.52H822.733V27.824L822.589 27.248C822.823 26.6613 823.218 26.2133 823.773 25.904C824.327 25.5947 825.01 25.44 825.821 25.44V26.928C825.757 26.9173 825.693 26.912 825.629 26.912C825.575 26.912 825.522 26.912 825.469 26.912C824.647 26.912 823.997 27.1573 823.517 27.648C823.037 28.1387 822.797 28.848 822.797 29.776V34H821.261ZM831.412 34.096C830.505 34.096 829.705 33.9093 829.012 33.536C828.329 33.1627 827.796 32.6507 827.412 32C827.038 31.3493 826.852 30.6027 826.852 29.76C826.852 28.9173 827.033 28.1707 827.396 27.52C827.769 26.8693 828.276 26.3627 828.916 26C829.566 25.6267 830.297 25.44 831.108 25.44C831.929 25.44 832.654 25.6213 833.284 25.984C833.913 26.3467 834.404 26.8587 834.756 27.52C835.118 28.1707 835.3 28.9333 835.3 29.808C835.3 29.872 835.294 29.9467 835.284 30.032C835.284 30.1173 835.278 30.1973 835.268 30.272H828.052V29.168H834.468L833.844 29.552C833.854 29.008 833.742 28.5227 833.508 28.096C833.273 27.6693 832.948 27.3387 832.532 27.104C832.126 26.8587 831.652 26.736 831.108 26.736C830.574 26.736 830.1 26.8587 829.684 27.104C829.268 27.3387 828.942 27.6747 828.708 28.112C828.473 28.5387 828.356 29.0293 828.356 29.584V29.84C828.356 30.4053 828.484 30.912 828.74 31.36C829.006 31.7973 829.374 32.1387 829.844 32.384C830.313 32.6293 830.852 32.752 831.46 32.752C831.961 32.752 832.414 32.6667 832.82 32.496C833.236 32.3253 833.598 32.0693 833.908 31.728L834.756 32.72C834.372 33.168 833.892 33.5093 833.316 33.744C832.75 33.9787 832.116 34.096 831.412 34.096Z" fill="#8B8B8B"/>
</svg>
