<svg width="1188" height="46" viewBox="0 0 1188 46" fill="none" xmlns="http://www.w3.org/2000/svg">
<line y1="27.5" x2="1091" y2="27.5" stroke="#DDDDDD"/>
<path d="M1097 10.5H1182C1185.04 10.5 1187.5 12.9624 1187.5 16V40C1187.5 43.0376 1185.04 45.5 1182 45.5H1097C1093.96 45.5 1091.5 43.0376 1091.5 40V16C1091.5 12.9624 1093.96 10.5 1097 10.5Z" stroke="#DDDDDD"/>
<path d="M1107.08 34L1112.15 22.8H1113.73L1118.82 34H1117.14L1112.61 23.696H1113.25L1108.73 34H1107.08ZM1109.24 31.2L1109.67 29.92H1115.97L1116.44 31.2H1109.24ZM1120.27 34V22.128H1121.8V34H1120.27ZM1124.74 34V22.128H1126.27V34H1124.74ZM1135.93 34.096C1135.23 34.096 1134.56 34 1133.92 33.808C1133.29 33.616 1132.79 33.3813 1132.43 33.104L1133.07 31.888C1133.43 32.1333 1133.88 32.3413 1134.41 32.512C1134.95 32.6827 1135.49 32.768 1136.05 32.768C1136.76 32.768 1137.27 32.6667 1137.58 32.464C1137.9 32.2613 1138.06 31.9787 1138.06 31.616C1138.06 31.3493 1137.97 31.1413 1137.77 30.992C1137.58 30.8427 1137.33 30.7307 1137.01 30.656C1136.7 30.5813 1136.35 30.5173 1135.97 30.464C1135.58 30.4 1135.2 30.3253 1134.81 30.24C1134.43 30.144 1134.08 30.016 1133.76 29.856C1133.44 29.6853 1133.18 29.456 1132.99 29.168C1132.8 28.8693 1132.7 28.4747 1132.7 27.984C1132.7 27.472 1132.85 27.024 1133.13 26.64C1133.42 26.256 1133.83 25.9627 1134.35 25.76C1134.88 25.5467 1135.51 25.44 1136.24 25.44C1136.79 25.44 1137.35 25.5093 1137.92 25.648C1138.49 25.776 1138.96 25.9627 1139.33 26.208L1138.67 27.424C1138.29 27.168 1137.89 26.992 1137.47 26.896C1137.05 26.8 1136.64 26.752 1136.22 26.752C1135.55 26.752 1135.05 26.864 1134.72 27.088C1134.39 27.3013 1134.22 27.5787 1134.22 27.92C1134.22 28.208 1134.32 28.432 1134.51 28.592C1134.71 28.7413 1134.97 28.8587 1135.28 28.944C1135.6 29.0293 1135.95 29.104 1136.33 29.168C1136.72 29.2213 1137.1 29.296 1137.49 29.392C1137.87 29.4773 1138.22 29.6 1138.53 29.76C1138.85 29.92 1139.1 30.144 1139.29 30.432C1139.5 30.72 1139.6 31.104 1139.6 31.584C1139.6 32.096 1139.45 32.5387 1139.15 32.912C1138.85 33.2853 1138.43 33.5787 1137.89 33.792C1137.34 33.9947 1136.69 34.096 1135.93 34.096ZM1146.78 34V32.208L1146.7 31.872V28.816C1146.7 28.1653 1146.51 27.664 1146.13 27.312C1145.75 26.9493 1145.19 26.768 1144.43 26.768C1143.93 26.768 1143.44 26.8533 1142.96 27.024C1142.48 27.184 1142.07 27.4027 1141.74 27.68L1141.1 26.528C1141.54 26.176 1142.06 25.9093 1142.67 25.728C1143.29 25.536 1143.93 25.44 1144.61 25.44C1145.77 25.44 1146.67 25.7227 1147.29 26.288C1147.92 26.8533 1148.24 27.7173 1148.24 28.88V34H1146.78ZM1144 34.096C1143.37 34.096 1142.81 33.9893 1142.33 33.776C1141.87 33.5627 1141.5 33.2693 1141.25 32.896C1140.99 32.512 1140.86 32.08 1140.86 31.6C1140.86 31.1413 1140.97 30.7253 1141.18 30.352C1141.41 29.9787 1141.76 29.68 1142.25 29.456C1142.76 29.232 1143.43 29.12 1144.27 29.12H1146.96V30.224H1144.33C1143.57 30.224 1143.05 30.352 1142.78 30.608C1142.52 30.864 1142.38 31.1733 1142.38 31.536C1142.38 31.952 1142.55 32.288 1142.88 32.544C1143.21 32.7893 1143.67 32.912 1144.25 32.912C1144.83 32.912 1145.33 32.784 1145.76 32.528C1146.2 32.272 1146.51 31.8987 1146.7 31.408L1147.01 32.464C1146.8 32.9653 1146.45 33.3653 1145.93 33.664C1145.42 33.952 1144.78 34.096 1144 34.096ZM1151.08 34V22.128H1152.62V34H1151.08ZM1159.33 34.096C1158.42 34.096 1157.62 33.9093 1156.93 33.536C1156.24 33.1627 1155.71 32.6507 1155.33 32C1154.95 31.3493 1154.77 30.6027 1154.77 29.76C1154.77 28.9173 1154.95 28.1707 1155.31 27.52C1155.68 26.8693 1156.19 26.3627 1156.83 26C1157.48 25.6267 1158.21 25.44 1159.02 25.44C1159.84 25.44 1160.57 25.6213 1161.2 25.984C1161.83 26.3467 1162.32 26.8587 1162.67 27.52C1163.03 28.1707 1163.21 28.9333 1163.21 29.808C1163.21 29.872 1163.21 29.9467 1163.2 30.032C1163.2 30.1173 1163.19 30.1973 1163.18 30.272H1155.97V29.168H1162.38L1161.76 29.552C1161.77 29.008 1161.66 28.5227 1161.42 28.096C1161.19 27.6693 1160.86 27.3387 1160.45 27.104C1160.04 26.8587 1159.57 26.736 1159.02 26.736C1158.49 26.736 1158.01 26.8587 1157.6 27.104C1157.18 27.3387 1156.86 27.6747 1156.62 28.112C1156.39 28.5387 1156.27 29.0293 1156.27 29.584V29.84C1156.27 30.4053 1156.4 30.912 1156.65 31.36C1156.92 31.7973 1157.29 32.1387 1157.76 32.384C1158.23 32.6293 1158.77 32.752 1159.37 32.752C1159.88 32.752 1160.33 32.6667 1160.73 32.496C1161.15 32.3253 1161.51 32.0693 1161.82 31.728L1162.67 32.72C1162.29 33.168 1161.81 33.5093 1161.23 33.744C1160.66 33.9787 1160.03 34.096 1159.33 34.096ZM1167.78 34.096C1167.07 34.096 1166.4 34 1165.76 33.808C1165.13 33.616 1164.64 33.3813 1164.27 33.104L1164.91 31.888C1165.28 32.1333 1165.73 32.3413 1166.26 32.512C1166.79 32.6827 1167.34 32.768 1167.89 32.768C1168.61 32.768 1169.12 32.6667 1169.43 32.464C1169.75 32.2613 1169.91 31.9787 1169.91 31.616C1169.91 31.3493 1169.81 31.1413 1169.62 30.992C1169.43 30.8427 1169.17 30.7307 1168.85 30.656C1168.54 30.5813 1168.19 30.5173 1167.81 30.464C1167.43 30.4 1167.04 30.3253 1166.66 30.24C1166.27 30.144 1165.92 30.016 1165.6 29.856C1165.28 29.6853 1165.03 29.456 1164.83 29.168C1164.64 28.8693 1164.55 28.4747 1164.55 27.984C1164.55 27.472 1164.69 27.024 1164.98 26.64C1165.27 26.256 1165.67 25.9627 1166.19 25.76C1166.73 25.5467 1167.36 25.44 1168.08 25.44C1168.64 25.44 1169.2 25.5093 1169.76 25.648C1170.34 25.776 1170.81 25.9627 1171.17 26.208L1170.51 27.424C1170.13 27.168 1169.73 26.992 1169.31 26.896C1168.9 26.8 1168.48 26.752 1168.07 26.752C1167.39 26.752 1166.89 26.864 1166.56 27.088C1166.23 27.3013 1166.07 27.5787 1166.07 27.92C1166.07 28.208 1166.16 28.432 1166.35 28.592C1166.56 28.7413 1166.81 28.8587 1167.12 28.944C1167.44 29.0293 1167.79 29.104 1168.18 29.168C1168.56 29.2213 1168.95 29.296 1169.33 29.392C1169.71 29.4773 1170.06 29.6 1170.37 29.76C1170.69 29.92 1170.95 30.144 1171.14 30.432C1171.34 30.72 1171.44 31.104 1171.44 31.584C1171.44 32.096 1171.29 32.5387 1170.99 32.912C1170.7 33.2853 1170.27 33.5787 1169.73 33.792C1169.19 33.9947 1168.54 34.096 1167.78 34.096Z" fill="#8B8B8B"/>
</svg>
